<svg width="450" height="170" viewBox="0 0 450 170" fill="none" xmlns="http://www.w3.org/2000/svg">
<g clip-path="url(#clip0_1_3)">
<rect width="450" height="170" fill="white"/>
<g clip-path="url(#clip1_1_3)">
<path d="M567 -239H-117V409H567V-239Z" fill="white"/>
<path d="M567 -239H-117V409H567V-239Z" fill="white"/>
<path d="M567 -239H-117V409H567V-239Z" fill="white"/>
<path d="M67.2801 53.9835H61.2476V69.2835H58.0413V53.9835H52.0326V51.261H67.2801V53.9835Z" fill="black"/>
<path d="M90.6822 69.2835H87.4759V61.8135H77.3822V69.2835H74.1759V51.261H77.3822V59.091H87.4759V51.261H90.6822V69.2835Z" fill="black"/>
<path d="M113.407 53.9835H103.028V58.866H112.314V61.5885H103.028V66.561H113.739V69.2835H99.8216V51.261H113.407V53.9835Z" fill="black"/>
<path d="M145.959 53.9835H139.926V69.2835H136.72V53.9835H130.711V51.261H145.959V53.9835Z" fill="black"/>
<path d="M165.133 65.211H155.562L153.733 69.2835H150.385L158.792 51.261H162.07L170.382 69.2835H166.962L165.133 65.211ZM163.922 62.511L160.336 54.501L156.75 62.511H163.922Z" fill="black"/>
<path d="M183.307 51.126C185.777 51.126 187.998 51.7504 189.981 52.9935L188.651 55.671C186.703 54.546 184.839 53.9835 183.069 53.9835C182.102 53.9835 181.342 54.1523 180.789 54.4785C180.249 54.8104 179.982 55.2773 179.982 55.8735C179.982 56.4754 180.231 56.9873 180.742 57.4035C181.247 57.8254 181.882 58.1348 182.642 58.326C183.402 58.5229 184.221 58.7704 185.112 59.0685C185.997 59.3723 186.822 59.6929 187.582 60.036C188.342 60.3679 188.965 60.891 189.458 61.611C189.963 62.3198 190.218 63.1748 190.218 64.176C190.218 65.7679 189.553 67.0335 188.223 67.9785C186.893 68.9235 185.165 69.396 183.046 69.396C181.585 69.396 180.178 69.1429 178.818 68.631C177.47 68.1079 176.289 67.4104 175.279 66.5385L176.657 63.906C177.619 64.7498 178.676 65.4023 179.816 65.8635C180.968 66.3135 182.06 66.5385 183.093 66.5385C184.215 66.5385 185.088 66.3473 185.706 65.9535C186.335 65.5654 186.656 65.0254 186.656 64.3335C186.656 63.7204 186.4 63.2029 185.896 62.781C185.385 62.3648 184.756 62.0554 183.996 61.8585C183.236 61.6673 182.41 61.4254 181.526 61.1385C180.635 60.8573 179.816 60.5535 179.056 60.2385C178.296 59.9235 177.66 59.4173 177.156 58.7085C176.645 58.0054 176.396 57.156 176.396 56.166C176.396 54.636 177.025 53.4154 178.296 52.4985C179.56 51.5873 181.229 51.126 183.307 51.126Z" fill="black"/>
<path d="M211.107 53.9835H205.074V69.2835H201.868V53.9835H195.859V51.261H211.107V53.9835Z" fill="black"/>
<path d="M231.588 53.9835H221.209V58.866H230.495V61.5885H221.209V66.561H231.92V69.2835H218.003V51.261H231.588V53.9835Z" fill="black"/>
<path d="M252.479 53.8035C254.426 52.0654 256.813 51.1935 259.651 51.1935C262.501 51.1935 264.888 52.0654 266.824 53.8035C268.771 55.5472 269.745 57.7072 269.745 60.2835C269.745 62.8485 268.771 65.0197 266.824 66.786C264.888 68.541 262.501 69.4185 259.651 69.4185C256.813 69.4185 254.426 68.541 252.479 66.786C250.543 65.0197 249.581 62.8485 249.581 60.2835C249.581 57.7072 250.543 55.5472 252.479 53.8035ZM259.675 53.916C257.787 53.916 256.172 54.5347 254.83 55.761C253.5 56.9929 252.835 58.5004 252.835 60.2835C252.835 62.0722 253.506 63.5854 254.854 64.8285C256.213 66.0604 257.822 66.6735 259.675 66.6735C261.539 66.6735 263.131 66.0604 264.449 64.8285C265.779 63.5854 266.444 62.0722 266.444 60.2835C266.444 58.5004 265.779 56.9929 264.449 55.761C263.131 54.5347 261.539 53.916 259.675 53.916Z" fill="black"/>
<path d="M290.064 53.9835H280.517V59.2035H289.162V61.9035H280.517V69.2835H277.311V51.261H290.088L290.064 53.9835Z" fill="black"/>
<path d="M311.462 69.2835H308.256V51.261H311.462V69.2835Z" fill="black"/>
<path d="M333.61 53.9835H327.578V69.2835H324.371V53.9835H318.363V51.261H333.61V53.9835Z" fill="black"/>
<path d="M352.785 65.211H343.213L341.385 69.2835H338.036L346.443 51.261H349.721L358.033 69.2835H354.613L352.785 65.211ZM351.573 62.511L347.987 54.501L344.401 62.511H351.573Z" fill="black"/>
<path d="M367.918 66.5385H376.159V69.2835H364.712V51.261H367.918V66.5385Z" fill="black"/>
<path d="M391.19 63.276V69.2835H388.008V63.3885L380.906 51.261H384.136L389.575 60.036L394.895 51.261H398.173L391.19 63.276Z" fill="black"/>
<path d="M156.127 101.262C156.127 103.022 156.412 104.614 157.41 105.733C158.627 107.151 159.88 107.595 160.77 107.595C162.094 107.595 162.664 106.678 161.483 106.375C161.127 106.273 160.842 106.24 160.485 106.105C159.737 105.868 159.161 105.43 158.698 104.85C156.626 102.448 157.772 98.0497 158.912 95.6478C159.88 93.5103 161.234 91.5866 162.843 89.8597C163.81 88.7066 167.058 85.7985 168.703 85.7985C169.629 85.7985 170.027 86.1697 170.49 87.0472C171.737 89.5503 170.169 95.8503 169.522 98.286C168.845 100.823 168.275 103.365 167.628 105.868C167.058 108.473 166.488 111.15 166.168 113.788L165.342 119.982C165.271 120.657 165.057 121.742 165.592 121.945C165.663 121.978 165.74 121.978 165.811 121.978C166.346 121.978 166.31 120.966 166.381 120.488C166.453 119.813 166.559 119.07 166.666 118.39C167.771 110.841 169.024 106.24 170.775 98.9272C171.523 95.8503 173.204 89.2803 171.416 86.2372C170.739 85.1178 169.843 84.7128 168.917 84.7128C167.129 84.7128 165.164 86.136 164.024 87.216C163.704 87.5535 163.413 87.7278 163.056 88.0316C159.666 91.2435 156.127 96.6603 156.127 101.262Z" fill="black"/>
<path d="M161.193 95.0685C161.193 95.5466 161.549 95.6478 161.947 95.6478C162.16 95.6478 162.374 95.6141 162.552 95.5803C162.873 94.9335 162.517 95.0685 163.407 94.731C163.835 94.5622 164.161 94.326 164.589 94.1572C166.803 93.3416 168.84 92.7678 171.197 92.2278C171.553 92.1266 172.379 91.9916 172.593 91.9241L172.272 95.0685C172.23 95.5128 172.195 96.2553 172.123 96.6941C171.945 97.6785 171.91 102.246 171.91 103.534L171.803 105.12C171.803 107.595 171.696 111.623 171.91 114.058C171.91 114.868 171.945 116.089 172.878 116.089C173.804 116.089 173.269 113.755 173.269 112.973C173.198 111.488 173.234 104.715 173.341 103.703C173.412 102.988 173.341 101.47 173.341 100.485C173.341 100.013 173.448 100.013 173.448 99.5741C173.448 99.231 173.412 98.826 173.448 98.5222L174.16 91.5866C175.021 91.4122 180.448 90.4335 182.413 90.4335C182.668 90.4335 182.847 90.4335 182.989 90.4672C183.417 90.5685 183.31 90.4335 183.417 90.771C184.776 90.771 184.343 89.4153 182.668 89.4153C180.483 89.4153 178.376 89.7585 176.303 90.1297C175.769 90.1972 175.021 90.3997 174.451 90.3997C174.451 89.3141 175.163 90.1972 175.163 89.3141C175.163 89.1116 175.128 88.9766 175.128 88.8753C175.092 88.5378 175.163 88.8078 175.163 88.4028C175.163 87.8628 174.878 87.4185 174.487 87.4185C174.018 87.4185 173.448 88.0316 173.091 89.8597C172.842 91.0072 172.949 90.7035 171.447 91.0747C169.41 91.6203 161.193 93.5497 161.193 95.0685Z" fill="black"/>
<path d="M175.376 106.746C175.376 107.967 175.483 108.54 176.807 108.54C177.84 108.54 178.95 105.362 179.627 104.918C179.627 106.375 180.773 108.135 182.554 108.135C183.166 108.135 183.843 107.933 184.555 107.46L185.63 106.645C187.453 104.985 187.239 104.142 186.698 104.142C186.485 104.142 186.235 104.243 186.057 104.479C185.558 104.985 185.452 105.295 184.775 105.869C183.985 106.611 183.237 107.016 182.554 107.016C181.806 107.016 181.165 106.476 180.88 105.255C180.559 103.973 181.165 102.449 179.912 102.449C179.449 102.449 177.982 105.329 177.27 106.375L176.985 106.78C176.807 106.982 176.913 106.847 176.807 106.949C176.807 105.835 177.305 104.547 177.768 103.838C178.808 102.145 179.52 101.672 180.054 101.672C180.737 101.672 181.165 102.449 181.663 102.449C182.59 102.449 181.663 100.519 179.983 100.519C177.483 100.519 175.376 104.817 175.376 106.746Z" fill="black"/>
<path d="M185.804 107.562C185.804 109.761 185.875 113.924 187.805 113.924C188.696 113.924 189.378 112.635 189.77 112.062C190.554 110.807 191.522 108.439 192.27 106.982C192.448 106.645 193.558 104.682 193.558 104.479C193.558 104.31 193.416 104.108 193.238 104.108C193.06 104.108 192.84 104.243 192.626 104.648C191.486 106.577 190.447 108.945 189.378 110.909C188.987 111.69 188.482 112.602 187.698 113.007C186.089 110.099 188.09 99.5741 189.093 96.1541C189.2 95.8166 190.127 93.8535 188.951 93.8535C188.019 93.8535 187.698 95.5466 187.377 96.5254C186.481 99.6416 185.804 104.209 185.804 107.562Z" fill="black"/>
<path d="M194.981 110.301C196.662 110.301 198.021 108.81 198.876 107.967C199.452 107.427 201.596 105.154 201.596 104.513C201.596 104.209 201.489 104.108 201.346 104.108C200.663 104.108 198.769 106.51 198.627 106.679C198.093 107.325 196.234 109.114 195.088 109.114C194.126 109.114 193.734 107.117 193.734 106.105C193.734 102.651 195.165 101.127 193.521 101.127C192.802 101.127 192.446 102.651 192.339 103.365C191.947 105.087 192.018 107.427 192.873 108.945C193.271 109.592 194.019 110.301 194.981 110.301ZM193.841 96.8629C193.841 97.611 194.304 97.9485 194.803 97.9485C195.522 97.9485 196.27 97.2004 195.593 95.9516C195.379 95.5804 195.13 95.4398 194.874 95.4398C194.34 95.4398 193.841 96.0866 193.841 96.8629Z" fill="black"/>
<path d="M200.161 106.746C200.161 107.967 200.268 108.54 201.592 108.54C202.625 108.54 203.736 105.362 204.413 104.918C204.413 106.375 205.559 108.135 207.34 108.135C207.951 108.135 208.628 107.933 209.341 107.46L210.415 106.645C212.238 104.985 212.024 104.142 211.484 104.142C211.27 104.142 211.021 104.243 210.843 104.479C210.344 104.985 210.237 105.295 209.56 105.869C208.771 106.611 208.023 107.016 207.34 107.016C206.592 107.016 205.95 106.476 205.665 105.255C205.345 103.973 205.95 102.449 204.698 102.449C204.234 102.449 202.768 105.329 202.055 106.375L201.77 106.78C201.592 106.982 201.699 106.847 201.592 106.949C201.592 105.835 202.091 104.547 202.554 103.838C203.593 102.145 204.306 101.672 204.84 101.672C205.523 101.672 205.95 102.449 206.449 102.449C207.375 102.449 206.449 100.519 204.769 100.519C202.269 100.519 200.161 104.817 200.161 106.746Z" fill="black"/>
<path d="M211.516 108.405C212.911 108.405 214.342 104.074 215.518 103.332C215.844 103.973 215.34 105.328 216.058 107.359C216.379 108.27 216.984 109.182 218.095 109.182C218.308 109.182 218.522 109.148 218.772 109.08C219.591 108.878 220.737 107.528 221.236 106.915C221.449 106.645 223.557 104.142 222.168 104.142C221.521 104.142 219.627 108.169 218.202 108.169C216.877 108.169 216.806 105.154 216.806 104.31L216.592 102.415C216.414 102.043 216.165 101.875 215.916 101.875C215.055 101.875 213.986 103.602 213.772 103.973L212.056 106.442C212.056 103.804 214.378 100.62 212.804 100.62C211.445 100.62 209.23 108.405 211.516 108.405Z" fill="black"/>
<path d="M240.131 111.043C239.882 110.942 239.448 110.841 239.092 110.74C238.665 110.638 238.201 110.571 237.916 110.47C238.059 110.301 239.882 109.221 240.274 109.182C240.06 109.592 240.131 110.436 240.131 111.043ZM242.239 105.767C242.239 104.648 242.845 100.62 243.023 99.231C243.272 97.1666 243.557 94.9672 243.99 93.0041C244.204 91.9916 244.418 91.041 244.596 90.0622C244.81 89.0104 245.095 88.0654 245.273 87.0135C245.415 86.2035 245.237 86.2372 245.95 85.8997C247.951 84.9491 249.204 84.6454 251.49 84.6454C253.526 84.6454 255.206 86.2372 255.206 88.1666C255.206 91.3785 253.49 94.0222 251.739 96.4579C249.56 99.5066 245.487 103.635 242.239 105.767ZM232.305 103.157C232.305 103.939 232.127 106.341 233.552 106.341C234.983 106.341 235.09 105.154 234.306 105.154C234.164 105.154 233.986 105.255 233.843 105.255C233.63 105.255 233.445 105.053 233.445 103.973C233.445 99.366 237.519 92.4304 241.414 89.0441C241.77 88.7404 242.025 88.6054 242.346 88.2679C242.631 88.0316 243.058 87.6941 243.379 87.5872L242.488 90.906C241.592 95.1697 240.915 99.4729 240.523 103.838L240.38 105.868C240.38 106.915 240.594 106.982 239.846 107.46C239.306 107.764 239.021 108 238.522 108.27C237.483 108.878 236.699 109.356 235.666 109.896C234.805 110.301 233.701 110.47 233.879 111.252C233.95 111.623 234.2 111.724 234.52 111.724C234.983 111.724 235.553 111.522 235.915 111.522C237.305 111.522 239.092 111.893 240.024 112.332C240.024 114.868 239.769 119.374 239.989 121.573C240.095 122.552 239.733 127.902 241.52 127.902C242.595 127.902 242.025 126.58 241.918 125.533C241.627 122.282 241.77 117.748 241.77 114.328C241.77 113.755 241.883 113.822 241.883 113.316C242.631 113.451 245.487 115.583 246.205 116.123C247.595 117.208 258.027 125.297 258.816 125.297C259.137 125.297 259.137 125.23 259.422 125.162C259.422 124.313 259.351 124.414 258.816 124.043C253.704 120.589 249.132 116.595 244.347 113.215C243.486 112.635 242.702 112.298 241.883 111.724C241.883 110.875 242.025 110.47 242.025 109.626C242.025 107.117 242.31 108 245.202 105.598L249.025 102.246C250.848 100.317 251.846 99.4054 253.49 97.1329C255.1 94.7985 256.922 91.9579 256.922 88.6729C256.922 85.3204 254.601 83.256 250.955 83.256C248.455 83.256 245.665 84.5104 243.7 85.6972C242.239 86.6422 242.132 86.9122 240.95 87.7616C237.412 90.3322 232.305 98.7247 232.305 103.157Z" fill="black"/>
<path d="M254.342 104.04C254.591 103.191 255.767 101.875 256.734 101.706C256.627 102.786 255.232 103.602 254.342 104.04ZM252.732 104.85C252.732 105.801 252.697 106.645 253.552 107.46C254.163 108.034 254.876 108.27 255.624 108.27C257.803 108.27 260.273 106.206 261.591 104.952C261.912 104.58 261.912 104.547 261.805 104.04C260.736 104.04 261.306 104.175 259.84 105.255C259.59 105.43 259.483 105.565 259.198 105.767C258.486 106.274 256.984 107.258 255.731 107.258C255.303 107.258 254.876 107.117 254.555 106.814C253.95 106.24 254.021 105.7 254.021 104.985C255.125 104.918 256.414 103.939 256.984 103.332C258.094 102.01 258.094 100.654 256.521 100.654C254.805 100.654 252.732 103.157 252.732 104.85Z" fill="black"/>
<path d="M260.447 105.531C260.447 107.663 261.444 109.66 263.914 109.66C266.45 109.66 268.7 107.325 270.166 105.565C270.345 105.362 270.594 105.053 270.701 104.817C270.915 104.378 270.736 104.007 270.416 104.007C270.238 104.007 269.953 104.175 269.697 104.513C268.379 106.206 266.414 108.54 263.95 108.54C263.089 108.54 262.697 108.102 262.448 107.494C261.593 105.835 262.84 102.853 264.092 102.043C264.164 102.617 264.449 102.921 264.734 102.921C264.983 102.921 265.197 102.651 265.197 102.043C265.197 101.16 264.769 100.688 264.057 100.688C261.985 100.688 260.447 103.939 260.447 105.531Z" fill="black"/>
<path d="M272.052 110.301C273.733 110.301 275.092 108.81 275.947 107.967C276.523 107.427 278.667 105.154 278.667 104.513C278.667 104.209 278.56 104.108 278.417 104.108C277.735 104.108 275.841 106.51 275.698 106.679C275.164 107.325 273.305 109.114 272.159 109.114C271.197 109.114 270.806 107.117 270.806 106.105C270.806 102.651 272.236 101.127 270.592 101.127C269.873 101.127 269.517 102.651 269.41 103.365C269.018 105.087 269.09 107.427 269.945 108.945C270.342 109.592 271.091 110.301 272.052 110.301ZM270.912 96.8629C270.912 97.611 271.376 97.9485 271.874 97.9485C272.593 97.9485 273.341 97.2004 272.664 95.9516C272.45 95.5804 272.201 95.4398 271.946 95.4398C271.411 95.4398 270.912 96.0866 270.912 96.8629Z" fill="black"/>
<path d="M279.696 112.264C280.017 110.976 279.981 111.111 280.878 110.335L282.665 108.878C282.374 109.896 280.878 111.657 279.696 112.264ZM280.593 109.289C280.7 108.034 282.303 105.12 283.021 105.12C283.235 105.12 283.342 105.362 283.342 105.902C283.342 107.427 283.485 106.982 281.377 108.675C281.199 108.81 281.199 108.81 280.985 108.945C280.807 109.114 280.807 109.148 280.593 109.289ZM277.232 110.031C277.232 112.905 277.624 115.92 278.052 118.761C278.123 119.374 278.123 119.678 278.663 119.678C279.447 119.678 278.948 117.85 278.948 116.595C278.948 115.988 279.126 113.687 279.661 113.384C279.91 113.215 280.302 113.074 280.593 112.939C283.52 111.353 284.161 107.832 284.488 107.494C284.951 106.949 288.413 105.019 288.413 104.547C288.413 104.243 288.306 104.142 288.092 104.142C287.522 104.142 286.234 105.154 285.557 105.599C285.272 105.767 284.844 106.105 284.559 106.172C284.559 105.222 284.055 104.074 283.021 104.074C280.557 104.074 279.59 110.436 278.77 111.01C278.77 107.629 279.055 104.648 279.732 101.436C279.981 100.317 280.088 100.519 279.875 99.7429C279.696 99.6417 279.518 99.6079 279.376 99.6079C277.838 99.6079 277.232 108.675 277.232 110.031Z" fill="black"/>
<path d="M288.877 104.04C289.126 103.191 290.302 101.875 291.27 101.706C291.163 102.786 289.768 103.602 288.877 104.04ZM287.268 104.85C287.268 105.801 287.232 106.645 288.087 107.46C288.699 108.034 289.411 108.27 290.16 108.27C292.339 108.27 294.809 106.206 296.127 104.952C296.447 104.58 296.447 104.547 296.341 104.04C295.272 104.04 295.842 104.175 294.375 105.255C294.126 105.43 294.019 105.565 293.734 105.767C293.021 106.274 291.519 107.258 290.266 107.258C289.839 107.258 289.411 107.117 289.091 106.814C288.485 106.24 288.556 105.7 288.556 104.985C289.661 104.918 290.949 103.939 291.519 103.332C292.63 102.01 292.63 100.654 291.056 100.654C289.34 100.654 287.268 103.157 287.268 104.85Z" fill="black"/>
<path d="M295.41 115.752C295.41 114.396 296.449 112.872 297.304 111.893C297.731 111.42 298.592 110.402 299.162 110.098C299.162 111.043 299.198 111.792 298.949 112.568C298.628 113.687 297.838 115.313 296.876 115.988C296.627 116.19 296.2 116.46 295.873 116.46C295.624 116.46 295.41 116.258 295.41 115.752ZM295.089 104.682C295.089 106.476 297.589 107.05 298.699 108.979C298.165 109.795 294.27 112.703 294.27 115.752C294.27 116.967 294.982 117.613 295.98 117.613C297.055 117.613 298.414 116.832 299.447 115.178C301.84 111.319 300.38 109.356 300.522 108.878C300.593 108.608 303.129 106.813 303.521 106.611L305.949 105.019C306.774 104.58 306.846 104.007 306.27 104.007C305.949 104.007 305.486 104.142 304.88 104.547L301.555 106.746C301.021 107.185 300.522 107.562 299.946 107.933C298.094 105.295 295.41 105.396 297.304 103.365C297.838 102.786 297.731 102.955 298.592 102.752C298.806 101.908 298.486 101.571 297.981 101.571C296.948 101.571 295.089 102.955 295.089 104.682Z" fill="black"/>
<path d="M56.9391 105.661L135.605 105.846" stroke="black" stroke-width="1.00134" stroke-linecap="round"/>
<path d="M314.609 106.392L393.275 106.926" stroke="black" stroke-width="1.00134" stroke-linecap="round"/>
</g>
</g>
<defs>
<clipPath id="clip0_1_3">
<rect width="450" height="170" fill="white"/>
</clipPath>
<clipPath id="clip1_1_3">
<rect width="570" height="540" fill="white" transform="translate(-60 -185)"/>
</clipPath>
</defs>
</svg>
