<svg width="100" height="100" viewBox="0 0 100 100" fill="none" xmlns="http://www.w3.org/2000/svg">
<g clip-path="url(#clip0_91_285)">
<rect width="100" height="100" fill="white"/>
<g clip-path="url(#clip1_91_285)">
<path d="M110 -10H-10V110H110V-10Z" fill="white"/>
<path d="M110 -10H-10V110H110V-10Z" fill="white"/>
<path d="M110 -10H-10V110H110V-10Z" fill="#215340"/>
<mask id="mask0_91_285" style="mask-type:luminance" maskUnits="userSpaceOnUse" x="10" y="11" width="81" height="81">
<path d="M10.0344 11.9052H90.1302V92H10.0344V11.9052Z" fill="white"/>
</mask>
<g mask="url(#mask0_91_285)">
<mask id="mask1_91_285" style="mask-type:luminance" maskUnits="userSpaceOnUse" x="10" y="11" width="81" height="81">
<path d="M50.0344 91.9052C39.3542 91.9052 29.2989 87.7479 21.7531 80.1865C14.1906 72.6406 10.0344 62.5844 10.0344 51.9052C10.0344 41.226 14.1906 31.1698 21.7531 23.624C29.2989 16.0615 39.3542 11.9052 50.0344 11.9052C60.7135 11.9052 70.7698 16.0615 78.3156 23.624C85.8771 31.1854 90.0344 41.226 90.0344 51.9052C90.0344 62.5844 85.8771 72.6406 78.3156 80.1865C70.7698 87.7479 60.7135 91.9052 50.0344 91.9052ZM50.0344 14.3031C39.9937 14.3031 30.5458 18.2198 23.4469 25.3188C16.3489 32.4167 12.4323 41.8656 12.4323 51.9052C12.4323 61.9448 16.3489 71.3938 23.4469 78.4917C30.5458 85.5906 39.9937 89.5073 50.0344 89.5073C60.0739 89.5073 69.5229 85.5906 76.6208 78.4917C83.7187 71.3938 87.6365 61.9448 87.6365 51.9052C87.6365 41.8656 83.7187 32.4167 76.6208 25.3188C69.5229 18.2198 60.0739 14.3031 50.0344 14.3031Z" fill="white"/>
</mask>
<g mask="url(#mask1_91_285)">
<path d="M10.0344 11.9052H89.9698V91.8417H10.0344V11.9052Z" fill="white"/>
</g>
</g>
<path d="M58.1771 34.7698C58.0156 34.6208 57.7635 34.6302 57.6135 34.7917L54.376 38.2865L54.1541 38.0823L57.3927 34.5875C57.5427 34.425 57.5333 34.174 57.3719 34.024C57.2104 33.874 56.9583 33.8833 56.8073 34.0448L53.5698 37.5406L53.3489 37.3354L56.5875 33.8406C56.7364 33.6792 56.7271 33.4271 56.5656 33.2771C56.4052 33.1271 56.1521 33.1375 56.0021 33.299L52.7646 36.7937L52.5437 36.5885L55.7812 33.0948C55.9312 32.9323 55.9219 32.6802 55.7604 32.5302C55.5989 32.3812 55.3469 32.3906 55.1969 32.5521L51.9594 36.0469L51.9573 36.0458L51.8562 36.151C51.7666 36.249 51.6854 36.3469 51.6125 36.4458L51.6094 36.45C51.3354 36.8219 51.1791 37.2083 51.1802 37.6615C51.1812 38.1375 51.3479 38.5865 51.6521 38.9562C51.4479 39.1729 50.5364 40.0615 49.4385 41.1271C48.126 39.7323 46.9666 38.4937 46.7333 38.2219C47.0729 37.8458 47.2729 37.3771 47.2969 36.874C47.3198 36.3927 47.1729 35.976 46.9021 35.5698H46.9031L46.8979 35.5646C46.826 35.4552 46.7448 35.3479 46.6552 35.2396L46.5531 35.1229L46.551 35.125L46.1541 34.7104C43.9666 32.8 42.8791 32.6344 42.2427 33.1802C41.4969 33.8187 41.2437 34.9292 42.9166 37.4917L43.2844 37.9823L43.2854 37.9833L43.325 38.0312C43.7729 38.574 44.2041 38.8812 44.825 38.9594C45.2969 39.0177 45.7635 38.9167 46.176 38.676C46.4083 38.9573 47.4646 40.3427 48.6448 41.8958C47.0219 43.4677 45.2677 45.1615 44.8125 45.6135C44.4927 45.9187 44.3166 46.126 44.3166 46.126C44.0062 46.4604 44.0281 46.9854 44.3656 47.2979C44.7031 47.6115 45.2281 47.5927 45.5385 47.2583C45.5385 47.2583 45.7583 47.026 45.951 46.8L45.9521 46.801C46.2354 46.475 47.8166 44.5771 49.3166 42.7802C50.7229 44.6333 52.1187 46.4771 52.3854 46.8125V46.8104C52.5791 47.0594 52.8 47.3167 52.8 47.3167C53.1125 47.6875 53.6677 47.7323 54.0406 47.4167C54.4135 47.1021 54.4625 46.5469 54.15 46.1781C54.15 46.1781 53.9739 45.949 53.65 45.6104C53.2208 45.1427 51.6479 43.475 50.1052 41.8365C51.1104 40.6365 51.9531 39.6344 52.1573 39.4094C52.5344 39.6542 52.9698 39.7698 53.4166 39.7344C54.0052 39.6885 54.4239 39.4187 54.8698 38.9271L54.9094 38.8823L54.9114 38.8812L58.1989 35.3333C58.3479 35.1719 58.3385 34.9198 58.1771 34.7698Z" fill="white"/>
<path d="M20.616 58.03H19.466V57.355H22.5952V58.03H21.4452V60.9467H20.616V58.03Z" fill="white"/>
<path d="M26.6965 57.355V60.9467H25.8673V59.4717H24.234V60.9467H23.4006V57.355H24.234V58.7717H25.8673V57.355H26.6965Z" fill="white"/>
<path d="M30.6893 60.28V60.9467H27.906V57.355H30.6227V58.0217H28.7352V58.8008H30.4018V59.4467H28.7352V60.28H30.6893Z" fill="white"/>
<path d="M34.2657 58.03H33.1157V57.355H36.2449V58.03H35.0949V60.9467H34.2657V58.03Z" fill="white"/>
<path d="M39.417 60.1758H37.7504L37.4295 60.9467H36.5795L38.1795 57.355H39.0004L40.6087 60.9467H39.7379L39.417 60.1758ZM39.1545 59.5467L38.5879 58.1675L38.017 59.5467H39.1545Z" fill="white"/>
<path d="M42.5236 61.0092C42.2371 61.0092 41.9611 60.9696 41.6944 60.8925C41.4298 60.8154 41.2173 60.7154 41.0569 60.5925L41.3402 59.9675C41.4954 60.079 41.6788 60.1696 41.8902 60.2383C42.1006 60.3081 42.3131 60.3425 42.5277 60.3425C42.7631 60.3425 42.9371 60.3081 43.0486 60.2383C43.1621 60.1665 43.2194 60.0717 43.2194 59.955C43.2194 59.8696 43.1861 59.7988 43.1194 59.7425C43.0527 59.6873 42.9663 59.6425 42.8611 59.6092C42.7579 59.5738 42.6173 59.5342 42.4402 59.4925C42.1652 59.429 41.9402 59.3654 41.7652 59.3008C41.5923 59.2342 41.4444 59.13 41.3194 58.9883C41.1944 58.8446 41.1319 58.6508 41.1319 58.4092C41.1319 58.2008 41.1871 58.0123 41.2986 57.8425C41.4121 57.6738 41.5829 57.5404 41.8111 57.4425C42.0381 57.3425 42.3163 57.2925 42.6444 57.2925C42.8746 57.2925 43.0986 57.3206 43.3152 57.3758C43.534 57.429 43.7277 57.5071 43.8944 57.6092L43.6361 58.2425C43.3027 58.054 42.9704 57.9592 42.6402 57.9592C42.4069 57.9592 42.234 57.9967 42.1236 58.0717C42.0121 58.1467 41.9569 58.2467 41.9569 58.3717C41.9569 58.4946 42.0204 58.5863 42.1486 58.6467C42.2756 58.705 42.4715 58.7633 42.7361 58.8217C43.0111 58.8863 43.2361 58.9508 43.4111 59.0175C43.5861 59.0821 43.7361 59.1842 43.8611 59.3258C43.9861 59.4654 44.0486 59.654 44.0486 59.8925C44.0486 60.0988 43.9902 60.2863 43.8736 60.455C43.759 60.6248 43.5871 60.7592 43.3569 60.8592C43.1288 60.9592 42.8506 61.0092 42.5236 61.0092Z" fill="white"/>
<path d="M45.7191 58.03H44.5691V57.355H47.6983V58.03H46.5483V60.9467H45.7191V58.03Z" fill="white"/>
<path d="M51.2871 60.28V60.9467H48.5037V57.355H51.2204V58.0217H49.3329V58.8008H50.9996V59.4467H49.3329V60.28H51.2871Z" fill="white"/>
<path d="M55.8593 61.0092C55.4864 61.0092 55.151 60.929 54.851 60.7675C54.551 60.6071 54.3156 60.3863 54.1468 60.105C53.977 59.8217 53.8926 59.504 53.8926 59.1508C53.8926 58.7988 53.977 58.4821 54.1468 58.2008C54.3156 57.9175 54.551 57.6956 54.851 57.5342C55.151 57.3738 55.4864 57.2925 55.8593 57.2925C56.2312 57.2925 56.5656 57.3738 56.8635 57.5342C57.1635 57.6956 57.3978 57.9175 57.5676 58.2008C57.7395 58.4821 57.826 58.7988 57.826 59.1508C57.826 59.504 57.7395 59.8217 57.5676 60.105C57.3978 60.3863 57.1635 60.6071 56.8635 60.7675C56.5656 60.929 56.2312 61.0092 55.8593 61.0092ZM55.8593 60.3008C56.0697 60.3008 56.2603 60.2529 56.4301 60.155C56.602 60.0581 56.7364 59.9217 56.8343 59.7467C56.9343 59.5717 56.9843 59.3738 56.9843 59.1508C56.9843 58.929 56.9343 58.73 56.8343 58.555C56.7364 58.38 56.602 58.2446 56.4301 58.1467C56.2603 58.0498 56.0697 58.0008 55.8593 58.0008C55.6478 58.0008 55.4562 58.0498 55.2843 58.1467C55.1114 58.2446 54.977 58.38 54.8801 58.555C54.7822 58.73 54.7343 58.929 54.7343 59.1508C54.7343 59.3738 54.7822 59.5717 54.8801 59.7467C54.977 59.9217 55.1114 60.0581 55.2843 60.155C55.4562 60.2529 55.6478 60.3008 55.8593 60.3008Z" fill="white"/>
<path d="M59.6411 58.0217V58.9717H61.3036V59.6383H59.6411V60.9467H58.8077V57.355H61.5244V58.0217H59.6411Z" fill="white"/>
<path d="M64.2574 57.355H65.0908V60.9467H64.2574V57.355Z" fill="white"/>
<path d="M67.0456 58.03H65.8956V57.355H69.0248V58.03H67.8748V60.9467H67.0456V58.03Z" fill="white"/>
<path d="M72.1969 60.1758H70.5303L70.2094 60.9467H69.3594L70.9594 57.355H71.7803L73.3886 60.9467H72.5178L72.1969 60.1758ZM71.9344 59.5467L71.3678 58.1675L70.7969 59.5467H71.9344Z" fill="white"/>
<path d="M74.1201 57.355H74.9535V60.2675H76.7535V60.9467H74.1201V57.355Z" fill="white"/>
<path d="M79.3037 59.6717V60.9467H78.4746V59.6633L77.0829 57.355H77.9662L78.9246 58.9508L79.8829 57.355H80.6996L79.3037 59.6717Z" fill="white"/>
<path d="M35.8336 71.0591H36.2169V73.1132H35.8336V71.0591Z" fill="white"/>
<path d="M37.3907 71.3841H36.7115V71.0591H38.4532V71.3841H37.774V73.1132H37.3907V71.3841Z" fill="white"/>
<path d="M40.2773 72.6382H39.2481L39.0481 73.1132H38.6523L39.5773 71.0591H39.9523L40.8814 73.1132H40.4814L40.2773 72.6382ZM40.1523 72.3382L39.7648 71.4424L39.3773 72.3382H40.1523Z" fill="white"/>
<path d="M41.3448 71.0591H41.7281V72.7924H42.799V73.1132H41.3448V71.0591Z" fill="white"/>
<path d="M43.306 71.0591H43.6893V73.1132H43.306V71.0591Z" fill="white"/>
<path d="M45.7797 72.6382H44.7505L44.5505 73.1132H44.1547L45.0797 71.0591H45.4547L46.3838 73.1132H45.9838L45.7797 72.6382ZM45.6547 72.3382L45.2672 71.4424L44.8797 72.3382H45.6547Z" fill="white"/>
<path d="M48.6722 71.0591V73.1132H48.3597L47.2264 71.7216V73.1132H46.8472V71.0591H47.1639L48.2931 72.4507V71.0591H48.6722Z" fill="white"/>
<path d="M51.7871 73.1132L51.3662 72.5132C51.3496 72.5132 51.3225 72.5132 51.2871 72.5132H50.8246V73.1132H50.4412V71.0591H51.2871C51.4641 71.0591 51.6183 71.0882 51.7496 71.1466C51.8829 71.2049 51.9839 71.2903 52.0537 71.4007C52.1256 71.5091 52.1621 71.6382 52.1621 71.7882C52.1621 71.9445 52.1246 72.0778 52.0496 72.1882C51.9746 72.2997 51.8662 72.383 51.7246 72.4382L52.1954 73.1132H51.7871ZM51.7746 71.7882C51.7746 71.658 51.7308 71.558 51.6454 71.4882C51.5621 71.4195 51.4371 71.3841 51.2704 71.3841H50.8246V72.2007H51.2704C51.4371 72.2007 51.5621 72.1664 51.6454 72.0966C51.7308 72.0247 51.7746 71.9216 51.7746 71.7882Z" fill="white"/>
<path d="M54.331 72.7924V73.1132H52.7893V71.0591H54.2893V71.3799H53.1726V71.9132H54.1643V72.2257H53.1726V72.7924H54.331Z" fill="white"/>
<path d="M55.9086 73.1424C55.7023 73.1424 55.5148 73.0987 55.3461 73.0091C55.1794 72.9174 55.0482 72.7914 54.9544 72.6299C54.8596 72.4695 54.8127 72.2882 54.8127 72.0882C54.8127 71.8862 54.8596 71.7049 54.9544 71.5466C55.0513 71.3862 55.1836 71.2591 55.3502 71.1674C55.5169 71.0757 55.7044 71.0299 55.9127 71.0299C56.0815 71.0299 56.2346 71.0591 56.3711 71.1174C56.5096 71.1757 56.6273 71.2622 56.7252 71.3757L56.4794 71.6049C56.3294 71.4445 56.1461 71.3632 55.9294 71.3632C55.7898 71.3632 55.6638 71.3955 55.5502 71.4591C55.4388 71.5205 55.3513 71.607 55.2877 71.7174C55.2263 71.8257 55.1961 71.9497 55.1961 72.0882C55.1961 72.2278 55.2263 72.3507 55.2877 72.4591C55.3513 72.5674 55.4388 72.6539 55.5502 72.7174C55.6638 72.7789 55.7898 72.8091 55.9294 72.8091C56.1461 72.8091 56.3294 72.7278 56.4794 72.5632L56.7252 72.8007C56.6273 72.9122 56.5096 72.9966 56.3711 73.0549C56.2315 73.1132 56.0773 73.1424 55.9086 73.1424Z" fill="white"/>
<path d="M57.2949 71.0591H57.6783V73.1132H57.2949V71.0591Z" fill="white"/>
<path d="M59.2812 71.0591C59.4583 71.0591 59.6124 71.0882 59.7437 71.1466C59.877 71.2049 59.9781 71.2903 60.0479 71.4007C60.1197 71.5091 60.1562 71.6382 60.1562 71.7882C60.1562 71.9382 60.1197 72.0695 60.0479 72.1799C59.9781 72.2914 59.877 72.3757 59.7437 72.4341C59.6124 72.4924 59.4583 72.5216 59.2812 72.5216H58.8187V73.1132H58.4354V71.0591H59.2812ZM59.2645 72.1966C59.4312 72.1966 59.5562 72.1622 59.6395 72.0924C59.7249 72.0237 59.7687 71.9216 59.7687 71.7882C59.7687 71.658 59.7249 71.558 59.6395 71.4882C59.5562 71.4195 59.4312 71.3841 59.2645 71.3841H58.8187V72.1966H59.2645Z" fill="white"/>
<path d="M62.3105 72.7924V73.1132H60.7688V71.0591H62.2688V71.3799H61.1521V71.9132H62.1438V72.2257H61.1521V72.7924H62.3105Z" fill="white"/>
<path d="M63.5755 73.1424C63.4172 73.1424 63.2641 73.1195 63.1172 73.0757C62.9693 73.032 62.8526 72.9716 62.7672 72.8966L62.8964 72.6007C62.9818 72.6674 63.086 72.7216 63.2089 72.7632C63.3308 72.8049 63.4526 72.8257 63.5755 72.8257C63.7276 72.8257 63.8422 72.8028 63.9172 72.7549C63.9922 72.7049 64.0297 72.6403 64.0297 72.5591C64.0297 72.5007 64.0089 72.4528 63.9672 72.4132C63.9255 72.3747 63.8714 72.3455 63.8047 72.3257C63.7401 72.3039 63.6526 72.2789 63.5422 72.2507C63.386 72.2153 63.2599 72.1789 63.163 72.1424C63.0651 72.1039 62.9818 72.0455 62.913 71.9674C62.8433 71.8872 62.8089 71.7789 62.8089 71.6424C62.8089 71.5289 62.8391 71.4257 62.9005 71.3341C62.9641 71.2424 63.0568 71.1695 63.1797 71.1132C63.3047 71.058 63.4568 71.0299 63.638 71.0299C63.763 71.0299 63.8849 71.0466 64.0047 71.0799C64.1266 71.1112 64.2318 71.1549 64.3214 71.2132L64.2005 71.5091C64.111 71.457 64.0172 71.4164 63.9172 71.3882C63.8193 71.3612 63.7255 71.3466 63.6339 71.3466C63.4839 71.3466 63.3714 71.3737 63.2964 71.4257C63.2235 71.4757 63.188 71.5424 63.188 71.6257C63.188 71.6841 63.2089 71.733 63.2505 71.7716C63.2922 71.808 63.3443 71.8372 63.4089 71.8591C63.4755 71.8789 63.5641 71.9028 63.6755 71.9299C63.8276 71.9664 63.9526 72.0039 64.0505 72.0424C64.1474 72.0789 64.2308 72.1372 64.3005 72.2174C64.3693 72.2955 64.4047 72.4007 64.4047 72.5341C64.4047 72.6455 64.3735 72.7487 64.313 72.8424C64.2516 72.9341 64.1589 73.008 64.0339 73.0632C63.9089 73.1153 63.7558 73.1424 63.5755 73.1424Z" fill="white"/>
</g>
</g>
<defs>
<clipPath id="clip0_91_285">
<rect width="100" height="100" fill="white"/>
</clipPath>
<clipPath id="clip1_91_285">
<rect width="100" height="100" fill="white"/>
</clipPath>
</defs>
</svg>
