<svg xmlns="http://www.w3.org/2000/svg" xmlns:xlink="http://www.w3.org/1999/xlink" width="500" zoomAndPan="magnify" viewBox="0 0 375 374.999991" height="500" preserveAspectRatio="xMidYMid meet" version="1.0"><defs><g/><clipPath id="d6b869e29b"><path d="M 37.628906 44.644531 L 337.988281 44.644531 L 337.988281 345 L 37.628906 345 Z M 37.628906 44.644531 " clip-rule="nonzero"/></clipPath><clipPath id="9f2c2a76b7"><path d="M 187.628906 344.644531 C 147.578125 344.644531 109.871094 329.054688 81.574219 300.699219 C 53.214844 272.402344 37.628906 234.691406 37.628906 194.644531 C 37.628906 154.597656 53.214844 116.886719 81.574219 88.589844 C 109.871094 60.230469 147.578125 44.644531 187.628906 44.644531 C 227.675781 44.644531 265.386719 60.230469 293.683594 88.589844 C 322.039062 116.945312 337.628906 154.597656 337.628906 194.644531 C 337.628906 234.691406 322.039062 272.402344 293.683594 300.699219 C 265.386719 329.054688 227.675781 344.644531 187.628906 344.644531 M 187.628906 53.636719 C 149.976562 53.636719 114.546875 68.324219 87.925781 94.945312 C 61.308594 121.5625 46.621094 156.996094 46.621094 194.644531 C 46.621094 232.292969 61.308594 267.726562 87.925781 294.34375 C 114.546875 320.964844 149.976562 335.652344 187.628906 335.652344 C 225.277344 335.652344 260.710938 320.964844 287.328125 294.34375 C 313.945312 267.726562 328.636719 232.292969 328.636719 194.644531 C 328.636719 156.996094 313.945312 121.5625 287.328125 94.945312 C 260.710938 68.324219 225.277344 53.636719 187.628906 53.636719 " clip-rule="nonzero"/></clipPath></defs><rect x="-37.5" width="450" fill="#ffffff" y="-37.499999" height="449.999989" fill-opacity="1"/><rect x="-37.5" width="450" fill="#ffffff" y="-37.499999" height="449.999989" fill-opacity="1"/><rect x="-37.5" width="450" fill="#215340" y="-37.499999" height="449.999989" fill-opacity="1"/><g clip-path="url(#d6b869e29b)"><g clip-path="url(#9f2c2a76b7)"><path fill="#ffffff" d="M 37.628906 44.644531 L 337.386719 44.644531 L 337.386719 344.40625 L 37.628906 344.40625 Z M 37.628906 44.644531 " fill-opacity="1" fill-rule="nonzero"/></g></g><path fill="#ffffff" d="M 218.164062 130.386719 C 217.558594 129.828125 216.613281 129.863281 216.050781 130.46875 L 203.910156 143.574219 L 203.078125 142.808594 L 215.222656 129.703125 C 215.785156 129.09375 215.75 128.152344 215.144531 127.589844 C 214.539062 127.027344 213.59375 127.0625 213.027344 127.667969 L 200.886719 140.777344 L 200.058594 140.007812 L 212.203125 126.902344 C 212.761719 126.296875 212.726562 125.351562 212.121094 124.789062 C 211.519531 124.226562 210.570312 124.265625 210.007812 124.871094 L 197.867188 137.976562 L 197.039062 137.207031 L 209.179688 124.105469 C 209.742188 123.496094 209.707031 122.550781 209.101562 121.988281 C 208.496094 121.429688 207.550781 121.464844 206.988281 122.070312 L 194.847656 135.175781 L 194.839844 135.171875 L 194.460938 135.566406 C 194.125 135.933594 193.820312 136.300781 193.546875 136.671875 L 193.535156 136.6875 C 192.507812 138.082031 191.921875 139.53125 191.925781 141.230469 C 191.929688 143.015625 192.554688 144.699219 193.695312 146.085938 C 192.929688 146.898438 189.511719 150.230469 185.394531 154.226562 C 180.472656 148.996094 176.125 144.351562 175.25 143.332031 C 176.523438 141.921875 177.273438 140.164062 177.363281 138.277344 C 177.449219 136.472656 176.898438 134.910156 175.882812 133.386719 L 175.886719 133.386719 L 175.867188 133.367188 C 175.597656 132.957031 175.292969 132.554688 174.957031 132.148438 L 174.574219 131.710938 L 174.566406 131.71875 L 173.078125 130.164062 C 164.875 123 160.796875 122.378906 158.410156 124.425781 C 155.613281 126.820312 154.664062 130.984375 160.9375 140.59375 L 162.316406 142.433594 L 162.320312 142.4375 L 162.46875 142.617188 C 164.148438 144.652344 165.765625 145.804688 168.09375 146.097656 C 169.863281 146.316406 171.613281 145.9375 173.160156 145.035156 C 174.03125 146.089844 177.992188 151.285156 182.417969 157.109375 C 176.332031 163.003906 169.753906 169.355469 168.046875 171.050781 C 166.847656 172.195312 166.1875 172.972656 166.1875 172.972656 C 165.023438 174.226562 165.105469 176.195312 166.371094 177.367188 C 167.636719 178.542969 169.605469 178.472656 170.769531 177.21875 C 170.769531 177.21875 171.59375 176.347656 172.316406 175.5 L 172.320312 175.503906 C 173.382812 174.28125 179.3125 167.164062 184.9375 160.425781 C 190.210938 167.375 195.445312 174.289062 196.445312 175.546875 L 196.445312 175.539062 C 197.171875 176.472656 198 177.4375 198 177.4375 C 199.171875 178.828125 201.253906 178.996094 202.652344 177.8125 C 204.050781 176.632812 204.234375 174.550781 203.0625 173.167969 C 203.0625 173.167969 202.402344 172.308594 201.1875 171.039062 C 199.578125 169.285156 193.679688 163.03125 187.894531 156.886719 C 191.664062 152.386719 194.824219 148.628906 195.589844 147.785156 C 197.003906 148.703125 198.636719 149.136719 200.3125 149.003906 C 202.519531 148.832031 204.089844 147.820312 205.761719 145.976562 L 205.910156 145.808594 L 205.917969 145.804688 L 218.246094 132.5 C 218.804688 131.894531 218.769531 130.949219 218.164062 130.386719 " fill-opacity="1" fill-rule="nonzero"/><g fill="#ffffff" fill-opacity="1"><g transform="translate(72.919357, 228.550063)"><g><path d="M 4.390625 -10.9375 L 0.078125 -10.9375 L 0.078125 -13.46875 L 11.8125 -13.46875 L 11.8125 -10.9375 L 7.5 -10.9375 L 7.5 0 L 4.390625 0 Z M 4.390625 -10.9375 "/></g></g></g><g fill="#ffffff" fill-opacity="1"><g transform="translate(86.158542, 228.550063)"><g><path d="M 13.953125 -13.46875 L 13.953125 0 L 10.84375 0 L 10.84375 -5.53125 L 4.71875 -5.53125 L 4.71875 0 L 1.59375 0 L 1.59375 -13.46875 L 4.71875 -13.46875 L 4.71875 -8.15625 L 10.84375 -8.15625 L 10.84375 -13.46875 Z M 13.953125 -13.46875 "/></g></g></g><g fill="#ffffff" fill-opacity="1"><g transform="translate(103.053737, 228.550063)"><g><path d="M 12.03125 -2.5 L 12.03125 0 L 1.59375 0 L 1.59375 -13.46875 L 11.78125 -13.46875 L 11.78125 -10.96875 L 4.703125 -10.96875 L 4.703125 -8.046875 L 10.953125 -8.046875 L 10.953125 -5.625 L 4.703125 -5.625 L 4.703125 -2.5 Z M 12.03125 -2.5 "/></g></g></g><g fill="#ffffff" fill-opacity="1"><g transform="translate(117.312762, 228.550063)"><g/></g></g><g fill="#ffffff" fill-opacity="1"><g transform="translate(124.105823, 228.550063)"><g><path d="M 4.390625 -10.9375 L 0.078125 -10.9375 L 0.078125 -13.46875 L 11.8125 -13.46875 L 11.8125 -10.9375 L 7.5 -10.9375 L 7.5 0 L 4.390625 0 Z M 4.390625 -10.9375 "/></g></g></g><g fill="#ffffff" fill-opacity="1"><g transform="translate(137.345011, 228.550063)"><g><path d="M 10.46875 -2.890625 L 4.21875 -2.890625 L 3.015625 0 L -0.171875 0 L 5.828125 -13.46875 L 8.90625 -13.46875 L 14.9375 0 L 11.671875 0 Z M 9.484375 -5.25 L 7.359375 -10.421875 L 5.21875 -5.25 Z M 9.484375 -5.25 "/></g></g></g><g fill="#ffffff" fill-opacity="1"><g transform="translate(153.432038, 228.550063)"><g><path d="M 6.03125 0.234375 C 4.957031 0.234375 3.921875 0.0859375 2.921875 -0.203125 C 1.929688 -0.492188 1.132812 -0.867188 0.53125 -1.328125 L 1.59375 -3.671875 C 2.175781 -3.253906 2.863281 -2.914062 3.65625 -2.65625 C 4.445312 -2.394531 5.242188 -2.265625 6.046875 -2.265625 C 6.929688 -2.265625 7.582031 -2.394531 8 -2.65625 C 8.425781 -2.925781 8.640625 -3.28125 8.640625 -3.71875 C 8.640625 -4.039062 8.515625 -4.304688 8.265625 -4.515625 C 8.015625 -4.722656 7.691406 -4.890625 7.296875 -5.015625 C 6.910156 -5.148438 6.382812 -5.296875 5.71875 -5.453125 C 4.6875 -5.691406 3.84375 -5.929688 3.1875 -6.171875 C 2.539062 -6.421875 1.984375 -6.8125 1.515625 -7.34375 C 1.046875 -7.882812 0.8125 -8.609375 0.8125 -9.515625 C 0.8125 -10.296875 1.019531 -11.003906 1.4375 -11.640625 C 1.863281 -12.273438 2.503906 -12.773438 3.359375 -13.140625 C 4.210938 -13.515625 5.253906 -13.703125 6.484375 -13.703125 C 7.347656 -13.703125 8.1875 -13.597656 9 -13.390625 C 9.820312 -13.191406 10.546875 -12.898438 11.171875 -12.515625 L 10.203125 -10.140625 C 8.953125 -10.847656 7.707031 -11.203125 6.46875 -11.203125 C 5.59375 -11.203125 4.945312 -11.0625 4.53125 -10.78125 C 4.113281 -10.5 3.90625 -10.125 3.90625 -9.65625 C 3.90625 -9.195312 4.144531 -8.851562 4.625 -8.625 C 5.101562 -8.40625 5.835938 -8.1875 6.828125 -7.96875 C 7.859375 -7.726562 8.703125 -7.484375 9.359375 -7.234375 C 10.015625 -6.992188 10.578125 -6.609375 11.046875 -6.078125 C 11.515625 -5.554688 11.75 -4.847656 11.75 -3.953125 C 11.75 -3.179688 11.53125 -2.476562 11.09375 -1.84375 C 10.664062 -1.207031 10.019531 -0.703125 9.15625 -0.328125 C 8.300781 0.046875 7.257812 0.234375 6.03125 0.234375 Z M 6.03125 0.234375 "/></g></g></g><g fill="#ffffff" fill-opacity="1"><g transform="translate(167.056069, 228.550063)"><g><path d="M 4.390625 -10.9375 L 0.078125 -10.9375 L 0.078125 -13.46875 L 11.8125 -13.46875 L 11.8125 -10.9375 L 7.5 -10.9375 L 7.5 0 L 4.390625 0 Z M 4.390625 -10.9375 "/></g></g></g><g fill="#ffffff" fill-opacity="1"><g transform="translate(180.295257, 228.550063)"><g><path d="M 12.03125 -2.5 L 12.03125 0 L 1.59375 0 L 1.59375 -13.46875 L 11.78125 -13.46875 L 11.78125 -10.96875 L 4.703125 -10.96875 L 4.703125 -8.046875 L 10.953125 -8.046875 L 10.953125 -5.625 L 4.703125 -5.625 L 4.703125 -2.5 Z M 12.03125 -2.5 "/></g></g></g><g fill="#ffffff" fill-opacity="1"><g transform="translate(194.554285, 228.550063)"><g/></g></g><g fill="#ffffff" fill-opacity="1"><g transform="translate(201.347349, 228.550063)"><g><path d="M 8.125 0.234375 C 6.726562 0.234375 5.46875 -0.0664062 4.34375 -0.671875 C 3.21875 -1.273438 2.335938 -2.101562 1.703125 -3.15625 C 1.066406 -4.21875 0.75 -5.410156 0.75 -6.734375 C 0.75 -8.054688 1.066406 -9.242188 1.703125 -10.296875 C 2.335938 -11.359375 3.21875 -12.191406 4.34375 -12.796875 C 5.46875 -13.398438 6.726562 -13.703125 8.125 -13.703125 C 9.519531 -13.703125 10.773438 -13.398438 11.890625 -12.796875 C 13.015625 -12.191406 13.894531 -11.359375 14.53125 -10.296875 C 15.175781 -9.242188 15.5 -8.054688 15.5 -6.734375 C 15.5 -5.410156 15.175781 -4.21875 14.53125 -3.15625 C 13.894531 -2.101562 13.015625 -1.273438 11.890625 -0.671875 C 10.773438 -0.0664062 9.519531 0.234375 8.125 0.234375 Z M 8.125 -2.421875 C 8.914062 -2.421875 9.628906 -2.601562 10.265625 -2.96875 C 10.910156 -3.332031 11.414062 -3.84375 11.78125 -4.5 C 12.15625 -5.15625 12.34375 -5.898438 12.34375 -6.734375 C 12.34375 -7.566406 12.15625 -8.3125 11.78125 -8.96875 C 11.414062 -9.625 10.910156 -10.132812 10.265625 -10.5 C 9.628906 -10.863281 8.914062 -11.046875 8.125 -11.046875 C 7.332031 -11.046875 6.613281 -10.863281 5.96875 -10.5 C 5.320312 -10.132812 4.816406 -9.625 4.453125 -8.96875 C 4.085938 -8.3125 3.90625 -7.566406 3.90625 -6.734375 C 3.90625 -5.898438 4.085938 -5.15625 4.453125 -4.5 C 4.816406 -3.84375 5.320312 -3.332031 5.96875 -2.96875 C 6.613281 -2.601562 7.332031 -2.421875 8.125 -2.421875 Z M 8.125 -2.421875 "/></g></g></g><g fill="#ffffff" fill-opacity="1"><g transform="translate(218.935269, 228.550063)"><g><path d="M 4.71875 -10.96875 L 4.71875 -7.40625 L 10.953125 -7.40625 L 10.953125 -4.90625 L 4.71875 -4.90625 L 4.71875 0 L 1.59375 0 L 1.59375 -13.46875 L 11.78125 -13.46875 L 11.78125 -10.96875 Z M 4.71875 -10.96875 "/></g></g></g><g fill="#ffffff" fill-opacity="1"><g transform="translate(232.578548, 228.550063)"><g/></g></g><g fill="#ffffff" fill-opacity="1"><g transform="translate(239.371612, 228.550063)"><g><path d="M 1.59375 -13.46875 L 4.71875 -13.46875 L 4.71875 0 L 1.59375 0 Z M 1.59375 -13.46875 "/></g></g></g><g fill="#ffffff" fill-opacity="1"><g transform="translate(247.03057, 228.550063)"><g><path d="M 4.390625 -10.9375 L 0.078125 -10.9375 L 0.078125 -13.46875 L 11.8125 -13.46875 L 11.8125 -10.9375 L 7.5 -10.9375 L 7.5 0 L 4.390625 0 Z M 4.390625 -10.9375 "/></g></g></g><g fill="#ffffff" fill-opacity="1"><g transform="translate(260.269758, 228.550063)"><g><path d="M 10.46875 -2.890625 L 4.21875 -2.890625 L 3.015625 0 L -0.171875 0 L 5.828125 -13.46875 L 8.90625 -13.46875 L 14.9375 0 L 11.671875 0 Z M 9.484375 -5.25 L 7.359375 -10.421875 L 5.21875 -5.25 Z M 9.484375 -5.25 "/></g></g></g><g fill="#ffffff" fill-opacity="1"><g transform="translate(276.356774, 228.550063)"><g><path d="M 1.59375 -13.46875 L 4.71875 -13.46875 L 4.71875 -2.546875 L 11.46875 -2.546875 L 11.46875 0 L 1.59375 0 Z M 1.59375 -13.46875 "/></g></g></g><g fill="#ffffff" fill-opacity="1"><g transform="translate(289.326568, 228.550063)"><g><path d="M 8.0625 -4.78125 L 8.0625 0 L 4.953125 0 L 4.953125 -4.8125 L -0.265625 -13.46875 L 3.046875 -13.46875 L 6.640625 -7.484375 L 10.234375 -13.46875 L 13.296875 -13.46875 Z M 8.0625 -4.78125 "/></g></g></g><g fill="#ffffff" fill-opacity="1"><g transform="translate(133.344693, 274.17464)"><g><path d="M 1.03125 -7.703125 L 2.46875 -7.703125 L 2.46875 0 L 1.03125 0 Z M 1.03125 -7.703125 "/></g></g></g><g fill="#ffffff" fill-opacity="1"><g transform="translate(137.62121, 274.17464)"><g><path d="M 2.59375 -6.484375 L 0.046875 -6.484375 L 0.046875 -7.703125 L 6.578125 -7.703125 L 6.578125 -6.484375 L 4.03125 -6.484375 L 4.03125 0 L 2.59375 0 Z M 2.59375 -6.484375 "/></g></g></g><g fill="#ffffff" fill-opacity="1"><g transform="translate(145.008528, 274.17464)"><g><path d="M 6.03125 -1.78125 L 2.171875 -1.78125 L 1.421875 0 L -0.0625 0 L 3.40625 -7.703125 L 4.8125 -7.703125 L 8.296875 0 L 6.796875 0 Z M 5.5625 -2.90625 L 4.109375 -6.265625 L 2.65625 -2.90625 Z M 5.5625 -2.90625 "/></g></g></g><g fill="#ffffff" fill-opacity="1"><g transform="translate(154.011706, 274.17464)"><g><path d="M 1.03125 -7.703125 L 2.46875 -7.703125 L 2.46875 -1.203125 L 6.484375 -1.203125 L 6.484375 0 L 1.03125 0 Z M 1.03125 -7.703125 "/></g></g></g><g fill="#ffffff" fill-opacity="1"><g transform="translate(161.366054, 274.17464)"><g><path d="M 1.03125 -7.703125 L 2.46875 -7.703125 L 2.46875 0 L 1.03125 0 Z M 1.03125 -7.703125 "/></g></g></g><g fill="#ffffff" fill-opacity="1"><g transform="translate(165.642571, 274.17464)"><g><path d="M 6.03125 -1.78125 L 2.171875 -1.78125 L 1.421875 0 L -0.0625 0 L 3.40625 -7.703125 L 4.8125 -7.703125 L 8.296875 0 L 6.796875 0 Z M 5.5625 -2.90625 L 4.109375 -6.265625 L 2.65625 -2.90625 Z M 5.5625 -2.90625 "/></g></g></g><g fill="#ffffff" fill-opacity="1"><g transform="translate(174.645749, 274.17464)"><g><path d="M 7.875 -7.703125 L 7.875 0 L 6.703125 0 L 2.453125 -5.21875 L 2.453125 0 L 1.03125 0 L 1.03125 -7.703125 L 2.21875 -7.703125 L 6.453125 -2.484375 L 6.453125 -7.703125 Z M 7.875 -7.703125 "/></g></g></g><g fill="#ffffff" fill-opacity="1"><g transform="translate(184.319456, 274.17464)"><g/></g></g><g fill="#ffffff" fill-opacity="1"><g transform="translate(188.123312, 274.17464)"><g><path d="M 6.078125 0 L 4.5 -2.25 C 4.4375 -2.25 4.335938 -2.25 4.203125 -2.25 L 2.46875 -2.25 L 2.46875 0 L 1.03125 0 L 1.03125 -7.703125 L 4.203125 -7.703125 C 4.867188 -7.703125 5.445312 -7.59375 5.9375 -7.375 C 6.4375 -7.15625 6.816406 -6.835938 7.078125 -6.421875 C 7.347656 -6.015625 7.484375 -5.53125 7.484375 -4.96875 C 7.484375 -4.382812 7.34375 -3.882812 7.0625 -3.46875 C 6.78125 -3.050781 6.375 -2.738281 5.84375 -2.53125 L 7.609375 0 Z M 6.03125 -4.96875 C 6.03125 -5.457031 5.867188 -5.832031 5.546875 -6.09375 C 5.234375 -6.351562 4.765625 -6.484375 4.140625 -6.484375 L 2.46875 -6.484375 L 2.46875 -3.421875 L 4.140625 -3.421875 C 4.765625 -3.421875 5.234375 -3.550781 5.546875 -3.8125 C 5.867188 -4.082031 6.03125 -4.46875 6.03125 -4.96875 Z M 6.03125 -4.96875 "/></g></g></g><g fill="#ffffff" fill-opacity="1"><g transform="translate(196.928636, 274.17464)"><g><path d="M 6.8125 -1.203125 L 6.8125 0 L 1.03125 0 L 1.03125 -7.703125 L 6.65625 -7.703125 L 6.65625 -6.5 L 2.46875 -6.5 L 2.46875 -4.5 L 6.1875 -4.5 L 6.1875 -3.328125 L 2.46875 -3.328125 L 2.46875 -1.203125 Z M 6.8125 -1.203125 "/></g></g></g><g fill="#ffffff" fill-opacity="1"><g transform="translate(205.063428, 274.17464)"><g><path d="M 4.59375 0.109375 C 3.820312 0.109375 3.117188 -0.0546875 2.484375 -0.390625 C 1.859375 -0.734375 1.367188 -1.207031 1.015625 -1.8125 C 0.660156 -2.414062 0.484375 -3.09375 0.484375 -3.84375 C 0.484375 -4.601562 0.660156 -5.28125 1.015625 -5.875 C 1.378906 -6.476562 1.875 -6.953125 2.5 -7.296875 C 3.125 -7.640625 3.828125 -7.8125 4.609375 -7.8125 C 5.242188 -7.8125 5.816406 -7.703125 6.328125 -7.484375 C 6.847656 -7.265625 7.289062 -6.941406 7.65625 -6.515625 L 6.734375 -5.65625 C 6.171875 -6.257812 5.484375 -6.5625 4.671875 -6.5625 C 4.148438 -6.5625 3.675781 -6.441406 3.25 -6.203125 C 2.832031 -5.972656 2.503906 -5.648438 2.265625 -5.234375 C 2.035156 -4.828125 1.921875 -4.363281 1.921875 -3.84375 C 1.921875 -3.320312 2.035156 -2.859375 2.265625 -2.453125 C 2.503906 -2.046875 2.832031 -1.722656 3.25 -1.484375 C 3.675781 -1.253906 4.148438 -1.140625 4.671875 -1.140625 C 5.484375 -1.140625 6.171875 -1.445312 6.734375 -2.0625 L 7.65625 -1.171875 C 7.289062 -0.753906 6.847656 -0.4375 6.328125 -0.21875 C 5.804688 0 5.226562 0.109375 4.59375 0.109375 Z M 4.59375 0.109375 "/></g></g></g><g fill="#ffffff" fill-opacity="1"><g transform="translate(213.824783, 274.17464)"><g><path d="M 1.03125 -7.703125 L 2.46875 -7.703125 L 2.46875 0 L 1.03125 0 Z M 1.03125 -7.703125 "/></g></g></g><g fill="#ffffff" fill-opacity="1"><g transform="translate(218.101303, 274.17464)"><g><path d="M 4.203125 -7.703125 C 4.867188 -7.703125 5.445312 -7.59375 5.9375 -7.375 C 6.4375 -7.15625 6.816406 -6.835938 7.078125 -6.421875 C 7.347656 -6.015625 7.484375 -5.53125 7.484375 -4.96875 C 7.484375 -4.40625 7.347656 -3.914062 7.078125 -3.5 C 6.816406 -3.082031 6.4375 -2.765625 5.9375 -2.546875 C 5.445312 -2.328125 4.867188 -2.21875 4.203125 -2.21875 L 2.46875 -2.21875 L 2.46875 0 L 1.03125 0 L 1.03125 -7.703125 Z M 4.140625 -3.4375 C 4.765625 -3.4375 5.234375 -3.566406 5.546875 -3.828125 C 5.867188 -4.085938 6.03125 -4.46875 6.03125 -4.96875 C 6.03125 -5.457031 5.867188 -5.832031 5.546875 -6.09375 C 5.234375 -6.351562 4.765625 -6.484375 4.140625 -6.484375 L 2.46875 -6.484375 L 2.46875 -3.4375 Z M 4.140625 -3.4375 "/></g></g></g><g fill="#ffffff" fill-opacity="1"><g transform="translate(226.851661, 274.17464)"><g><path d="M 6.8125 -1.203125 L 6.8125 0 L 1.03125 0 L 1.03125 -7.703125 L 6.65625 -7.703125 L 6.65625 -6.5 L 2.46875 -6.5 L 2.46875 -4.5 L 6.1875 -4.5 L 6.1875 -3.328125 L 2.46875 -3.328125 L 2.46875 -1.203125 Z M 6.8125 -1.203125 "/></g></g></g><g fill="#ffffff" fill-opacity="1"><g transform="translate(234.986453, 274.17464)"><g><path d="M 3.421875 0.109375 C 2.828125 0.109375 2.253906 0.0234375 1.703125 -0.140625 C 1.148438 -0.304688 0.710938 -0.53125 0.390625 -0.8125 L 0.875 -1.921875 C 1.195312 -1.671875 1.585938 -1.46875 2.046875 -1.3125 C 2.503906 -1.15625 2.960938 -1.078125 3.421875 -1.078125 C 3.992188 -1.078125 4.421875 -1.164062 4.703125 -1.34375 C 4.984375 -1.53125 5.125 -1.773438 5.125 -2.078125 C 5.125 -2.296875 5.046875 -2.476562 4.890625 -2.625 C 4.734375 -2.769531 4.53125 -2.878906 4.28125 -2.953125 C 4.039062 -3.035156 3.710938 -3.128906 3.296875 -3.234375 C 2.710938 -3.367188 2.238281 -3.503906 1.875 -3.640625 C 1.507812 -3.785156 1.195312 -4.003906 0.9375 -4.296875 C 0.675781 -4.597656 0.546875 -5.003906 0.546875 -5.515625 C 0.546875 -5.941406 0.660156 -6.328125 0.890625 -6.671875 C 1.128906 -7.015625 1.476562 -7.289062 1.9375 -7.5 C 2.40625 -7.707031 2.976562 -7.8125 3.65625 -7.8125 C 4.125 -7.8125 4.582031 -7.75 5.03125 -7.625 C 5.488281 -7.507812 5.882812 -7.34375 6.21875 -7.125 L 5.765625 -6.015625 C 5.429688 -6.210938 5.078125 -6.363281 4.703125 -6.46875 C 4.335938 -6.570312 3.984375 -6.625 3.640625 -6.625 C 3.078125 -6.625 2.65625 -6.523438 2.375 -6.328125 C 2.101562 -6.140625 1.96875 -5.890625 1.96875 -5.578125 C 1.96875 -5.359375 2.046875 -5.175781 2.203125 -5.03125 C 2.359375 -4.894531 2.554688 -4.785156 2.796875 -4.703125 C 3.046875 -4.628906 3.378906 -4.539062 3.796875 -4.4375 C 4.367188 -4.300781 4.835938 -4.160156 5.203125 -4.015625 C 5.566406 -3.878906 5.878906 -3.660156 6.140625 -3.359375 C 6.398438 -3.066406 6.53125 -2.671875 6.53125 -2.171875 C 6.53125 -1.753906 6.414062 -1.367188 6.1875 -1.015625 C 5.957031 -0.671875 5.609375 -0.394531 5.140625 -0.1875 C 4.671875 0.0078125 4.097656 0.109375 3.421875 0.109375 Z M 3.421875 0.109375 "/></g></g></g></svg>