<svg xmlns="http://www.w3.org/2000/svg" xmlns:xlink="http://www.w3.org/1999/xlink" width="500" zoomAndPan="magnify" viewBox="0 0 375 374.999991" height="500" preserveAspectRatio="xMidYMid meet" version="1.0"><defs><g/></defs><rect x="-37.5" width="450" fill="#ffffff" y="-37.499999" height="449.999989" fill-opacity="1"/><rect x="-37.5" width="450" fill="#ffffff" y="-37.499999" height="449.999989" fill-opacity="1"/><rect x="-37.5" width="450" fill="#ffffff" y="-37.499999" height="449.999989" fill-opacity="1"/><g fill="#ffffff" fill-opacity="1"><g transform="translate(73.549424, 176.585775)"><g><path d="M 10.1875 -10.625 L 6.21875 -10.625 L 6.21875 0 L 4.109375 0 L 4.109375 -10.625 L 0.15625 -10.625 L 0.15625 -12.515625 L 10.1875 -12.515625 Z M 10.1875 -10.625 "/></g></g></g><g fill="#ffffff" fill-opacity="1"><g transform="translate(86.632973, 176.585775)"><g><path d="M 12.5 0 L 10.390625 0 L 10.390625 -5.1875 L 3.75 -5.1875 L 3.75 0 L 1.640625 0 L 1.640625 -12.515625 L 3.75 -12.515625 L 3.75 -7.078125 L 10.390625 -7.078125 L 10.390625 -12.515625 L 12.5 -12.515625 Z M 12.5 0 "/></g></g></g><g fill="#ffffff" fill-opacity="1"><g transform="translate(103.505179, 176.585775)"><g><path d="M 10.578125 -10.625 L 3.75 -10.625 L 3.75 -7.234375 L 9.859375 -7.234375 L 9.859375 -5.34375 L 3.75 -5.34375 L 3.75 -1.890625 L 10.796875 -1.890625 L 10.796875 0 L 1.640625 0 L 1.640625 -12.515625 L 10.578125 -12.515625 Z M 10.578125 -10.625 "/></g></g></g><g fill="#ffffff" fill-opacity="1"><g transform="translate(117.9648, 176.585775)"><g/></g></g><g fill="#ffffff" fill-opacity="1"><g transform="translate(125.311746, 176.585775)"><g><path d="M 10.1875 -10.625 L 6.21875 -10.625 L 6.21875 0 L 4.109375 0 L 4.109375 -10.625 L 0.15625 -10.625 L 0.15625 -12.515625 L 10.1875 -12.515625 Z M 10.1875 -10.625 "/></g></g></g><g fill="#ffffff" fill-opacity="1"><g transform="translate(138.395295, 176.585775)"><g><path d="M 9.71875 -2.828125 L 3.421875 -2.828125 L 2.21875 0 L 0.015625 0 L 5.546875 -12.515625 L 7.703125 -12.515625 L 13.171875 0 L 10.921875 0 Z M 8.921875 -4.703125 L 6.5625 -10.265625 L 4.203125 -4.703125 Z M 8.921875 -4.703125 "/></g></g></g><g fill="#ffffff" fill-opacity="1"><g transform="translate(154.320331, 176.585775)"><g><path d="M 5.75 -12.609375 C 7.375 -12.609375 8.835938 -12.175781 10.140625 -11.3125 L 9.265625 -9.453125 C 7.984375 -10.234375 6.757812 -10.625 5.59375 -10.625 C 4.957031 -10.625 4.457031 -10.507812 4.09375 -10.28125 C 3.738281 -10.050781 3.5625 -9.726562 3.5625 -9.3125 C 3.5625 -8.894531 3.726562 -8.539062 4.0625 -8.25 C 4.394531 -7.957031 4.8125 -7.742188 5.3125 -7.609375 C 5.8125 -7.472656 6.351562 -7.300781 6.9375 -7.09375 C 7.519531 -6.882812 8.0625 -6.660156 8.5625 -6.421875 C 9.0625 -6.191406 9.472656 -5.828125 9.796875 -5.328125 C 10.128906 -4.835938 10.296875 -4.242188 10.296875 -3.546875 C 10.296875 -2.441406 9.859375 -1.5625 8.984375 -0.90625 C 8.109375 -0.25 6.972656 0.078125 5.578125 0.078125 C 4.617188 0.078125 3.691406 -0.0976562 2.796875 -0.453125 C 1.910156 -0.816406 1.132812 -1.300781 0.46875 -1.90625 L 1.375 -3.734375 C 2.007812 -3.148438 2.703125 -2.695312 3.453125 -2.375 C 4.210938 -2.0625 4.929688 -1.90625 5.609375 -1.90625 C 6.347656 -1.90625 6.921875 -2.039062 7.328125 -2.3125 C 7.742188 -2.582031 7.953125 -2.957031 7.953125 -3.4375 C 7.953125 -3.863281 7.785156 -4.222656 7.453125 -4.515625 C 7.117188 -4.804688 6.703125 -5.019531 6.203125 -5.15625 C 5.703125 -5.289062 5.160156 -5.457031 4.578125 -5.65625 C 3.992188 -5.851562 3.453125 -6.0625 2.953125 -6.28125 C 2.453125 -6.5 2.035156 -6.851562 1.703125 -7.34375 C 1.367188 -7.832031 1.203125 -8.421875 1.203125 -9.109375 C 1.203125 -10.171875 1.617188 -11.019531 2.453125 -11.65625 C 3.285156 -12.289062 4.382812 -12.609375 5.75 -12.609375 Z M 5.75 -12.609375 "/></g></g></g><g fill="#ffffff" fill-opacity="1"><g transform="translate(168.172328, 176.585775)"><g><path d="M 10.1875 -10.625 L 6.21875 -10.625 L 6.21875 0 L 4.109375 0 L 4.109375 -10.625 L 0.15625 -10.625 L 0.15625 -12.515625 L 10.1875 -12.515625 Z M 10.1875 -10.625 "/></g></g></g><g fill="#ffffff" fill-opacity="1"><g transform="translate(181.255876, 176.585775)"><g><path d="M 10.578125 -10.625 L 3.75 -10.625 L 3.75 -7.234375 L 9.859375 -7.234375 L 9.859375 -5.34375 L 3.75 -5.34375 L 3.75 -1.890625 L 10.796875 -1.890625 L 10.796875 0 L 1.640625 0 L 1.640625 -12.515625 L 10.578125 -12.515625 Z M 10.578125 -10.625 "/></g></g></g><g fill="#ffffff" fill-opacity="1"><g transform="translate(195.715497, 176.585775)"><g/></g></g><g fill="#ffffff" fill-opacity="1"><g transform="translate(203.062443, 176.585775)"><g><path d="M 2.515625 -10.75 C 3.796875 -11.957031 5.367188 -12.5625 7.234375 -12.5625 C 9.109375 -12.5625 10.679688 -11.957031 11.953125 -10.75 C 13.234375 -9.539062 13.875 -8.039062 13.875 -6.25 C 13.875 -4.46875 13.234375 -2.960938 11.953125 -1.734375 C 10.679688 -0.515625 9.109375 0.09375 7.234375 0.09375 C 5.367188 0.09375 3.796875 -0.515625 2.515625 -1.734375 C 1.242188 -2.960938 0.609375 -4.46875 0.609375 -6.25 C 0.609375 -8.039062 1.242188 -9.539062 2.515625 -10.75 Z M 7.25 -10.671875 C 6.007812 -10.671875 4.945312 -10.242188 4.0625 -9.390625 C 3.1875 -8.535156 2.75 -7.488281 2.75 -6.25 C 2.75 -5.007812 3.191406 -3.957031 4.078125 -3.09375 C 4.972656 -2.238281 6.03125 -1.8125 7.25 -1.8125 C 8.476562 -1.8125 9.523438 -2.238281 10.390625 -3.09375 C 11.265625 -3.957031 11.703125 -5.007812 11.703125 -6.25 C 11.703125 -7.488281 11.265625 -8.535156 10.390625 -9.390625 C 9.523438 -10.242188 8.476562 -10.671875 7.25 -10.671875 Z M 7.25 -10.671875 "/></g></g></g><g fill="#ffffff" fill-opacity="1"><g transform="translate(220.274196, 176.585775)"><g><path d="M 10.03125 -10.625 L 3.75 -10.625 L 3.75 -7 L 9.4375 -7 L 9.4375 -5.125 L 3.75 -5.125 L 3.75 0 L 1.640625 0 L 1.640625 -12.515625 L 10.046875 -12.515625 Z M 10.03125 -10.625 "/></g></g></g><g fill="#ffffff" fill-opacity="1"><g transform="translate(233.286253, 176.585775)"><g/></g></g><g fill="#ffffff" fill-opacity="1"><g transform="translate(240.633199, 176.585775)"><g><path d="M 3.75 0 L 1.640625 0 L 1.640625 -12.515625 L 3.75 -12.515625 Z M 3.75 0 "/></g></g></g><g fill="#ffffff" fill-opacity="1"><g transform="translate(248.766469, 176.585775)"><g><path d="M 10.1875 -10.625 L 6.21875 -10.625 L 6.21875 0 L 4.109375 0 L 4.109375 -10.625 L 0.15625 -10.625 L 0.15625 -12.515625 L 10.1875 -12.515625 Z M 10.1875 -10.625 "/></g></g></g><g fill="#ffffff" fill-opacity="1"><g transform="translate(261.850018, 176.585775)"><g><path d="M 9.71875 -2.828125 L 3.421875 -2.828125 L 2.21875 0 L 0.015625 0 L 5.546875 -12.515625 L 7.703125 -12.515625 L 13.171875 0 L 10.921875 0 Z M 8.921875 -4.703125 L 6.5625 -10.265625 L 4.203125 -4.703125 Z M 8.921875 -4.703125 "/></g></g></g><g fill="#ffffff" fill-opacity="1"><g transform="translate(277.775043, 176.585775)"><g><path d="M 3.75 -1.90625 L 9.171875 -1.90625 L 9.171875 0 L 1.640625 0 L 1.640625 -12.515625 L 3.75 -12.515625 Z M 3.75 -1.90625 "/></g></g></g><g fill="#ffffff" fill-opacity="1"><g transform="translate(290.054392, 176.585775)"><g><path d="M 6.78125 -4.171875 L 6.78125 0 L 4.6875 0 L 4.6875 -4.09375 L 0.015625 -12.515625 L 2.140625 -12.515625 L 5.71875 -6.421875 L 9.21875 -12.515625 L 11.375 -12.515625 Z M 6.78125 -4.171875 "/></g></g></g><g fill="#ffffff" fill-opacity="1"><g transform="translate(141.013194, 204.976379)"><g><path d="M 1.175781 -6.183594 C 1.175781 -4.960938 1.363281 -3.855469 2.019531 -3.078125 C 2.820312 -2.09375 3.644531 -1.785156 4.230469 -1.785156 C 5.101562 -1.785156 5.476562 -2.421875 4.699219 -2.632812 C 4.464844 -2.703125 4.277344 -2.726562 4.042969 -2.820312 C 3.550781 -2.984375 3.171875 -3.289062 2.867188 -3.691406 C 1.503906 -5.359375 2.257812 -8.414062 3.007812 -10.082031 C 3.644531 -11.566406 4.535156 -12.902344 5.59375 -14.101562 C 6.230469 -14.902344 8.367188 -16.921875 9.449219 -16.921875 C 10.058594 -16.921875 10.320312 -16.664062 10.625 -16.054688 C 11.445312 -14.316406 10.414062 -9.941406 9.988281 -8.25 C 9.542969 -6.488281 9.167969 -4.722656 8.742188 -2.984375 C 8.367188 -1.175781 7.992188 0.683594 7.78125 2.515625 L 7.238281 6.816406 C 7.191406 7.285156 7.050781 8.039062 7.402344 8.179688 C 7.449219 8.203125 7.5 8.203125 7.546875 8.203125 C 7.898438 8.203125 7.875 7.5 7.921875 7.167969 C 7.96875 6.699219 8.039062 6.183594 8.109375 5.710938 C 8.835938 0.46875 9.660156 -2.726562 10.8125 -7.804688 C 11.304688 -9.941406 12.410156 -14.503906 11.234375 -16.617188 C 10.789062 -17.394531 10.199219 -17.675781 9.589844 -17.675781 C 8.414062 -17.675781 7.121094 -16.6875 6.371094 -15.9375 C 6.160156 -15.703125 5.96875 -15.582031 5.734375 -15.371094 C 3.503906 -13.140625 1.175781 -9.378906 1.175781 -6.183594 Z M 1.175781 -6.183594 "/></g></g></g><g fill="#ffffff" fill-opacity="1"><g transform="translate(152.126872, 204.976379)"><g><path d="M -6.605469 -10.484375 C -6.605469 -10.152344 -6.371094 -10.082031 -6.109375 -10.082031 C -5.96875 -10.082031 -5.828125 -10.105469 -5.710938 -10.128906 C -5.5 -10.578125 -5.734375 -10.484375 -5.148438 -10.71875 C -4.867188 -10.835938 -4.652344 -11 -4.371094 -11.117188 C -2.914062 -11.683594 -1.574219 -12.082031 -0.0234375 -12.457031 C 0.210938 -12.527344 0.753906 -12.621094 0.894531 -12.667969 L 0.683594 -10.484375 C 0.65625 -10.175781 0.632812 -9.660156 0.585938 -9.355469 C 0.46875 -8.671875 0.445312 -5.5 0.445312 -4.605469 L 0.375 -3.503906 C 0.375 -1.785156 0.304688 1.011719 0.445312 2.703125 C 0.445312 3.265625 0.46875 4.113281 1.082031 4.113281 C 1.691406 4.113281 1.339844 2.492188 1.339844 1.949219 C 1.292969 0.917969 1.316406 -3.785156 1.386719 -4.488281 C 1.433594 -4.984375 1.386719 -6.039062 1.386719 -6.722656 C 1.386719 -7.050781 1.457031 -7.050781 1.457031 -7.355469 C 1.457031 -7.59375 1.433594 -7.875 1.457031 -8.085938 L 1.925781 -12.902344 C 2.492188 -13.023438 6.0625 -13.703125 7.355469 -13.703125 C 7.523438 -13.703125 7.640625 -13.703125 7.734375 -13.679688 C 8.015625 -13.609375 7.945312 -13.703125 8.015625 -13.46875 C 8.910156 -13.46875 8.625 -14.410156 7.523438 -14.410156 C 6.085938 -14.410156 4.699219 -14.171875 3.335938 -13.914062 C 2.984375 -13.867188 2.492188 -13.726562 2.117188 -13.726562 C 2.117188 -14.480469 2.585938 -13.867188 2.585938 -14.480469 C 2.585938 -14.621094 2.5625 -14.714844 2.5625 -14.785156 C 2.539062 -15.019531 2.585938 -14.832031 2.585938 -15.113281 C 2.585938 -15.488281 2.398438 -15.796875 2.140625 -15.796875 C 1.832031 -15.796875 1.457031 -15.371094 1.222656 -14.101562 C 1.058594 -13.304688 1.128906 -13.515625 0.140625 -13.257812 C -1.199219 -12.878906 -6.605469 -11.539062 -6.605469 -10.484375 Z M -6.605469 -10.484375 "/></g></g></g><g fill="#ffffff" fill-opacity="1"><g transform="translate(154.852431, 204.976379)"><g><path d="M 0 -2.375 C 0 -1.527344 0.0703125 -1.128906 0.941406 -1.128906 C 1.621094 -1.128906 2.351562 -3.335938 2.796875 -3.644531 C 2.796875 -2.632812 3.550781 -1.410156 4.722656 -1.410156 C 5.125 -1.410156 5.570312 -1.550781 6.039062 -1.878906 L 6.746094 -2.445312 C 7.945312 -3.597656 7.804688 -4.183594 7.449219 -4.183594 C 7.308594 -4.183594 7.144531 -4.113281 7.027344 -3.949219 C 6.699219 -3.597656 6.628906 -3.382812 6.183594 -2.984375 C 5.664062 -2.46875 5.171875 -2.1875 4.722656 -2.1875 C 4.230469 -2.1875 3.808594 -2.5625 3.621094 -3.410156 C 3.410156 -4.300781 3.808594 -5.359375 2.984375 -5.359375 C 2.679688 -5.359375 1.714844 -3.359375 1.246094 -2.632812 L 1.058594 -2.351562 C 0.941406 -2.210938 1.011719 -2.304688 0.941406 -2.234375 C 0.941406 -3.007812 1.269531 -3.902344 1.574219 -4.394531 C 2.257812 -5.570312 2.726562 -5.898438 3.078125 -5.898438 C 3.527344 -5.898438 3.808594 -5.359375 4.136719 -5.359375 C 4.746094 -5.359375 4.136719 -6.699219 3.03125 -6.699219 C 1.386719 -6.699219 0 -3.714844 0 -2.375 Z M 0 -2.375 "/></g></g></g><g fill="#ffffff" fill-opacity="1"><g transform="translate(161.666311, 204.976379)"><g><path d="M 0.046875 -1.808594 C 0.046875 -0.28125 0.09375 2.609375 1.363281 2.609375 C 1.949219 2.609375 2.398438 1.714844 2.65625 1.316406 C 3.171875 0.445312 3.808594 -1.199219 4.300781 -2.210938 C 4.417969 -2.445312 5.148438 -3.808594 5.148438 -3.949219 C 5.148438 -4.066406 5.054688 -4.207031 4.9375 -4.207031 C 4.820312 -4.207031 4.675781 -4.113281 4.535156 -3.832031 C 3.785156 -2.492188 3.101562 -0.847656 2.398438 0.515625 C 2.140625 1.058594 1.808594 1.691406 1.292969 1.972656 C 0.234375 -0.046875 1.550781 -7.355469 2.210938 -9.730469 C 2.28125 -9.964844 2.890625 -11.328125 2.117188 -11.328125 C 1.503906 -11.328125 1.292969 -10.152344 1.082031 -9.472656 C 0.492188 -7.308594 0.046875 -4.136719 0.046875 -1.808594 Z M 0.046875 -1.808594 "/></g></g></g><g fill="#ffffff" fill-opacity="1"><g transform="translate(165.801634, 204.976379)"><g><path d="M 1.949219 0.09375 C 3.054688 0.09375 3.949219 -0.941406 4.511719 -1.527344 C 4.890625 -1.902344 6.300781 -3.480469 6.300781 -3.925781 C 6.300781 -4.136719 6.230469 -4.207031 6.136719 -4.207031 C 5.6875 -4.207031 4.441406 -2.539062 4.347656 -2.421875 C 3.996094 -1.972656 2.773438 -0.730469 2.019531 -0.730469 C 1.386719 -0.730469 1.128906 -2.117188 1.128906 -2.820312 C 1.128906 -5.21875 2.070312 -6.277344 0.988281 -6.277344 C 0.515625 -6.277344 0.28125 -5.21875 0.210938 -4.722656 C -0.046875 -3.527344 0 -1.902344 0.5625 -0.847656 C 0.824219 -0.398438 1.316406 0.09375 1.949219 0.09375 Z M 1.199219 -9.238281 C 1.199219 -8.71875 1.503906 -8.484375 1.832031 -8.484375 C 2.304688 -8.484375 2.796875 -9.003906 2.351562 -9.871094 C 2.210938 -10.128906 2.046875 -10.226562 1.878906 -10.226562 C 1.527344 -10.226562 1.199219 -9.777344 1.199219 -9.238281 Z M 1.199219 -9.238281 "/></g></g></g><g fill="#ffffff" fill-opacity="1"><g transform="translate(171.158761, 204.976379)"><g><path d="M 0 -2.375 C 0 -1.527344 0.0703125 -1.128906 0.941406 -1.128906 C 1.621094 -1.128906 2.351562 -3.335938 2.796875 -3.644531 C 2.796875 -2.632812 3.550781 -1.410156 4.722656 -1.410156 C 5.125 -1.410156 5.570312 -1.550781 6.039062 -1.878906 L 6.746094 -2.445312 C 7.945312 -3.597656 7.804688 -4.183594 7.449219 -4.183594 C 7.308594 -4.183594 7.144531 -4.113281 7.027344 -3.949219 C 6.699219 -3.597656 6.628906 -3.382812 6.183594 -2.984375 C 5.664062 -2.46875 5.171875 -2.1875 4.722656 -2.1875 C 4.230469 -2.1875 3.808594 -2.5625 3.621094 -3.410156 C 3.410156 -4.300781 3.808594 -5.359375 2.984375 -5.359375 C 2.679688 -5.359375 1.714844 -3.359375 1.246094 -2.632812 L 1.058594 -2.351562 C 0.941406 -2.210938 1.011719 -2.304688 0.941406 -2.234375 C 0.941406 -3.007812 1.269531 -3.902344 1.574219 -4.394531 C 2.257812 -5.570312 2.726562 -5.898438 3.078125 -5.898438 C 3.527344 -5.898438 3.808594 -5.359375 4.136719 -5.359375 C 4.746094 -5.359375 4.136719 -6.699219 3.03125 -6.699219 C 1.386719 -6.699219 0 -3.714844 0 -2.375 Z M 0 -2.375 "/></g></g></g><g fill="#ffffff" fill-opacity="1"><g transform="translate(177.972642, 204.976379)"><g><path d="M 0.65625 -1.222656 C 1.574219 -1.222656 2.515625 -4.230469 3.289062 -4.746094 C 3.503906 -4.300781 3.171875 -3.359375 3.644531 -1.949219 C 3.855469 -1.316406 4.253906 -0.683594 4.984375 -0.683594 C 5.125 -0.683594 5.265625 -0.707031 5.429688 -0.753906 C 5.96875 -0.894531 6.722656 -1.832031 7.050781 -2.257812 C 7.191406 -2.445312 8.578125 -4.183594 7.664062 -4.183594 C 7.238281 -4.183594 5.992188 -1.386719 5.054688 -1.386719 C 4.183594 -1.386719 4.136719 -3.480469 4.136719 -4.066406 L 3.996094 -5.382812 C 3.878906 -5.640625 3.714844 -5.757812 3.550781 -5.757812 C 2.984375 -5.757812 2.28125 -4.558594 2.140625 -4.300781 L 1.011719 -2.585938 C 1.011719 -4.417969 2.539062 -6.628906 1.503906 -6.628906 C 0.609375 -6.628906 -0.847656 -1.222656 0.65625 -1.222656 Z M 0.65625 -1.222656 "/></g></g></g><g fill="#ffffff" fill-opacity="1"><g transform="translate(185.021492, 204.976379)"><g/></g></g><g fill="#ffffff" fill-opacity="1"><g transform="translate(191.106991, 204.976379)"><g><path d="M 6.347656 0.609375 C 6.183594 0.539062 5.898438 0.46875 5.664062 0.398438 C 5.382812 0.328125 5.078125 0.28125 4.890625 0.210938 C 4.984375 0.09375 6.183594 -0.65625 6.441406 -0.683594 C 6.300781 -0.398438 6.347656 0.1875 6.347656 0.609375 Z M 7.734375 -3.054688 C 7.734375 -3.832031 8.132812 -6.628906 8.25 -7.59375 C 8.414062 -9.027344 8.601562 -10.554688 8.886719 -11.917969 C 9.027344 -12.621094 9.167969 -13.28125 9.285156 -13.960938 C 9.425781 -14.691406 9.613281 -15.347656 9.730469 -16.078125 C 9.824219 -16.640625 9.707031 -16.617188 10.175781 -16.851562 C 11.492188 -17.511719 12.316406 -17.722656 13.820312 -17.722656 C 15.160156 -17.722656 16.265625 -16.617188 16.265625 -15.277344 C 16.265625 -13.046875 15.136719 -11.210938 13.984375 -9.519531 C 12.550781 -7.402344 9.871094 -4.535156 7.734375 -3.054688 Z M 1.199219 -4.867188 C 1.199219 -4.324219 1.082031 -2.65625 2.019531 -2.65625 C 2.960938 -2.65625 3.03125 -3.480469 2.515625 -3.480469 C 2.421875 -3.480469 2.304688 -3.410156 2.210938 -3.410156 C 2.070312 -3.410156 1.949219 -3.550781 1.949219 -4.300781 C 1.949219 -7.5 4.628906 -12.316406 7.191406 -14.667969 C 7.425781 -14.878906 7.59375 -14.972656 7.804688 -15.207031 C 7.992188 -15.371094 8.273438 -15.605469 8.484375 -15.679688 L 7.898438 -13.375 C 7.308594 -10.414062 6.863281 -7.425781 6.605469 -4.394531 L 6.511719 -2.984375 C 6.511719 -2.257812 6.652344 -2.210938 6.160156 -1.878906 C 5.804688 -1.667969 5.617188 -1.503906 5.289062 -1.316406 C 4.605469 -0.894531 4.089844 -0.5625 3.410156 -0.1875 C 2.84375 0.09375 2.117188 0.210938 2.234375 0.753906 C 2.28125 1.011719 2.445312 1.082031 2.65625 1.082031 C 2.960938 1.082031 3.335938 0.941406 3.574219 0.941406 C 4.488281 0.941406 5.664062 1.199219 6.277344 1.503906 C 6.277344 3.265625 6.109375 6.394531 6.253906 7.921875 C 6.324219 8.601562 6.085938 12.316406 7.261719 12.316406 C 7.96875 12.316406 7.59375 11.398438 7.523438 10.671875 C 7.332031 8.414062 7.425781 5.265625 7.425781 2.890625 C 7.425781 2.492188 7.5 2.539062 7.5 2.1875 C 7.992188 2.28125 9.871094 3.761719 10.34375 4.136719 C 11.257812 4.890625 18.121094 10.507812 18.640625 10.507812 C 18.851562 10.507812 18.851562 10.460938 19.039062 10.414062 C 19.039062 9.824219 18.992188 9.894531 18.640625 9.636719 C 15.277344 7.238281 12.269531 4.464844 9.121094 2.117188 C 8.554688 1.714844 8.039062 1.480469 7.5 1.082031 C 7.5 0.492188 7.59375 0.210938 7.59375 -0.375 C 7.59375 -2.117188 7.78125 -1.503906 9.683594 -3.171875 L 12.199219 -5.5 C 13.398438 -6.839844 14.054688 -7.472656 15.136719 -9.050781 C 16.195312 -10.671875 17.394531 -12.644531 17.394531 -14.925781 C 17.394531 -17.253906 15.867188 -18.6875 13.46875 -18.6875 C 11.824219 -18.6875 9.988281 -17.816406 8.695312 -16.992188 C 7.734375 -16.335938 7.664062 -16.148438 6.886719 -15.558594 C 4.558594 -13.773438 1.199219 -7.945312 1.199219 -4.867188 Z M 1.199219 -4.867188 "/></g></g></g><g fill="#ffffff" fill-opacity="1"><g transform="translate(205.721599, 204.976379)"><g><path d="M 1.082031 -4.253906 C 1.246094 -4.84375 2.019531 -5.757812 2.65625 -5.875 C 2.585938 -5.125 1.667969 -4.558594 1.082031 -4.253906 Z M 0.0234375 -3.691406 C 0.0234375 -3.03125 0 -2.445312 0.5625 -1.878906 C 0.964844 -1.480469 1.433594 -1.316406 1.925781 -1.316406 C 3.359375 -1.316406 4.984375 -2.75 5.851562 -3.621094 C 6.0625 -3.878906 6.0625 -3.902344 5.992188 -4.253906 C 5.289062 -4.253906 5.664062 -4.160156 4.699219 -3.410156 C 4.535156 -3.289062 4.464844 -3.195312 4.277344 -3.054688 C 3.808594 -2.703125 2.820312 -2.019531 1.996094 -2.019531 C 1.714844 -2.019531 1.433594 -2.117188 1.222656 -2.328125 C 0.824219 -2.726562 0.871094 -3.101562 0.871094 -3.597656 C 1.597656 -3.644531 2.445312 -4.324219 2.820312 -4.746094 C 3.550781 -5.664062 3.550781 -6.605469 2.515625 -6.605469 C 1.386719 -6.605469 0.0234375 -4.867188 0.0234375 -3.691406 Z M 0.0234375 -3.691406 "/></g></g></g><g fill="#ffffff" fill-opacity="1"><g transform="translate(210.820262, 204.976379)"><g><path d="M 0 -3.21875 C 0 -1.738281 0.65625 -0.351562 2.28125 -0.351562 C 3.949219 -0.351562 5.429688 -1.972656 6.394531 -3.195312 C 6.511719 -3.335938 6.675781 -3.550781 6.746094 -3.714844 C 6.886719 -4.019531 6.769531 -4.277344 6.558594 -4.277344 C 6.441406 -4.277344 6.253906 -4.160156 6.085938 -3.925781 C 5.21875 -2.75 3.925781 -1.128906 2.304688 -1.128906 C 1.738281 -1.128906 1.480469 -1.433594 1.316406 -1.855469 C 0.753906 -3.007812 1.574219 -5.078125 2.398438 -5.640625 C 2.445312 -5.242188 2.632812 -5.03125 2.820312 -5.03125 C 2.984375 -5.03125 3.125 -5.21875 3.125 -5.640625 C 3.125 -6.253906 2.84375 -6.582031 2.375 -6.582031 C 1.011719 -6.582031 0 -4.324219 0 -3.21875 Z M 0 -3.21875 "/></g></g></g><g fill="#ffffff" fill-opacity="1"><g transform="translate(216.506327, 204.976379)"><g><path d="M 1.949219 0.09375 C 3.054688 0.09375 3.949219 -0.941406 4.511719 -1.527344 C 4.890625 -1.902344 6.300781 -3.480469 6.300781 -3.925781 C 6.300781 -4.136719 6.230469 -4.207031 6.136719 -4.207031 C 5.6875 -4.207031 4.441406 -2.539062 4.347656 -2.421875 C 3.996094 -1.972656 2.773438 -0.730469 2.019531 -0.730469 C 1.386719 -0.730469 1.128906 -2.117188 1.128906 -2.820312 C 1.128906 -5.21875 2.070312 -6.277344 0.988281 -6.277344 C 0.515625 -6.277344 0.28125 -5.21875 0.210938 -4.722656 C -0.046875 -3.527344 0 -1.902344 0.5625 -0.847656 C 0.824219 -0.398438 1.316406 0.09375 1.949219 0.09375 Z M 1.199219 -9.238281 C 1.199219 -8.71875 1.503906 -8.484375 1.832031 -8.484375 C 2.304688 -8.484375 2.796875 -9.003906 2.351562 -9.871094 C 2.210938 -10.128906 2.046875 -10.226562 1.878906 -10.226562 C 1.527344 -10.226562 1.199219 -9.777344 1.199219 -9.238281 Z M 1.199219 -9.238281 "/></g></g></g><g fill="#ffffff" fill-opacity="1"><g transform="translate(221.863455, 204.976379)"><g><path d="M 1.621094 1.457031 C 1.832031 0.5625 1.808594 0.65625 2.398438 0.117188 L 3.574219 -0.894531 C 3.382812 -0.1875 2.398438 1.035156 1.621094 1.457031 Z M 2.210938 -0.609375 C 2.28125 -1.480469 3.335938 -3.503906 3.808594 -3.503906 C 3.949219 -3.503906 4.019531 -3.335938 4.019531 -2.960938 C 4.019531 -1.902344 4.113281 -2.210938 2.726562 -1.035156 C 2.609375 -0.941406 2.609375 -0.941406 2.46875 -0.847656 C 2.351562 -0.730469 2.351562 -0.707031 2.210938 -0.609375 Z M 0 -0.09375 C 0 1.902344 0.257812 3.996094 0.539062 5.96875 C 0.585938 6.394531 0.585938 6.605469 0.941406 6.605469 C 1.457031 6.605469 1.128906 5.335938 1.128906 4.464844 C 1.128906 4.042969 1.246094 2.445312 1.597656 2.234375 C 1.761719 2.117188 2.019531 2.019531 2.210938 1.925781 C 4.136719 0.824219 4.558594 -1.621094 4.773438 -1.855469 C 5.078125 -2.234375 7.355469 -3.574219 7.355469 -3.902344 C 7.355469 -4.113281 7.285156 -4.183594 7.144531 -4.183594 C 6.769531 -4.183594 5.921875 -3.480469 5.476562 -3.171875 C 5.289062 -3.054688 5.007812 -2.820312 4.820312 -2.773438 C 4.820312 -3.433594 4.488281 -4.230469 3.808594 -4.230469 C 2.1875 -4.230469 1.550781 0.1875 1.011719 0.585938 C 1.011719 -1.761719 1.199219 -3.832031 1.644531 -6.0625 C 1.808594 -6.839844 1.878906 -6.699219 1.738281 -7.238281 C 1.621094 -7.308594 1.503906 -7.332031 1.410156 -7.332031 C 0.398438 -7.332031 0 -1.035156 0 -0.09375 Z M 0 -0.09375 "/></g></g></g><g fill="#ffffff" fill-opacity="1"><g transform="translate(228.442377, 204.976379)"><g><path d="M 1.082031 -4.253906 C 1.246094 -4.84375 2.019531 -5.757812 2.65625 -5.875 C 2.585938 -5.125 1.667969 -4.558594 1.082031 -4.253906 Z M 0.0234375 -3.691406 C 0.0234375 -3.03125 0 -2.445312 0.5625 -1.878906 C 0.964844 -1.480469 1.433594 -1.316406 1.925781 -1.316406 C 3.359375 -1.316406 4.984375 -2.75 5.851562 -3.621094 C 6.0625 -3.878906 6.0625 -3.902344 5.992188 -4.253906 C 5.289062 -4.253906 5.664062 -4.160156 4.699219 -3.410156 C 4.535156 -3.289062 4.464844 -3.195312 4.277344 -3.054688 C 3.808594 -2.703125 2.820312 -2.019531 1.996094 -2.019531 C 1.714844 -2.019531 1.433594 -2.117188 1.222656 -2.328125 C 0.824219 -2.726562 0.871094 -3.101562 0.871094 -3.597656 C 1.597656 -3.644531 2.445312 -4.324219 2.820312 -4.746094 C 3.550781 -5.664062 3.550781 -6.605469 2.515625 -6.605469 C 1.386719 -6.605469 0.0234375 -4.867188 0.0234375 -3.691406 Z M 0.0234375 -3.691406 "/></g></g></g><g fill="#ffffff" fill-opacity="1"><g transform="translate(233.54104, 204.976379)"><g><path d="M 0.28125 3.878906 C 0.28125 2.9375 0.964844 1.878906 1.527344 1.199219 C 1.808594 0.871094 2.375 0.164062 2.75 -0.046875 C 2.75 0.609375 2.773438 1.128906 2.609375 1.667969 C 2.398438 2.445312 1.878906 3.574219 1.246094 4.042969 C 1.082031 4.183594 0.800781 4.371094 0.585938 4.371094 C 0.421875 4.371094 0.28125 4.230469 0.28125 3.878906 Z M 0.0703125 -3.808594 C 0.0703125 -2.5625 1.714844 -2.164062 2.445312 -0.824219 C 2.09375 -0.257812 -0.46875 1.761719 -0.46875 3.878906 C -0.46875 4.722656 0 5.171875 0.65625 5.171875 C 1.363281 5.171875 2.257812 4.628906 2.9375 3.480469 C 4.511719 0.800781 3.550781 -0.5625 3.644531 -0.894531 C 3.691406 -1.082031 5.359375 -2.328125 5.617188 -2.46875 L 7.214844 -3.574219 C 7.757812 -3.878906 7.804688 -4.277344 7.425781 -4.277344 C 7.214844 -4.277344 6.910156 -4.183594 6.511719 -3.902344 L 4.324219 -2.375 C 3.972656 -2.070312 3.644531 -1.808594 3.265625 -1.550781 C 2.046875 -3.382812 0.28125 -3.3125 1.527344 -4.722656 C 1.878906 -5.125 1.808594 -5.007812 2.375 -5.148438 C 2.515625 -5.734375 2.304688 -5.96875 1.972656 -5.96875 C 1.292969 -5.96875 0.0703125 -5.007812 0.0703125 -3.808594 Z M 0.0703125 -3.808594 "/></g></g></g><path stroke-linecap="round" transform="matrix(0.752012, 0.00188283, -0.00187779, 0.749998, 76.557011, 201.470288)" fill="none" stroke-linejoin="miter" d="M 0.50202 0.501898 L 69.322608 0.501003 " stroke="#ffffff" stroke-width="1" stroke-opacity="1" stroke-miterlimit="4"/><path stroke-linecap="round" transform="matrix(0.751995, 0.00538518, -0.00537075, 0.749981, 246.079236, 201.976436)" fill="none" stroke-linejoin="miter" d="M 0.500779 0.501794 L 69.322926 0.502426 " stroke="#ffffff" stroke-width="1" stroke-opacity="1" stroke-miterlimit="4"/></svg>