<svg xmlns="http://www.w3.org/2000/svg" xmlns:xlink="http://www.w3.org/1999/xlink" width="500" zoomAndPan="magnify" viewBox="0 0 375 374.999991" height="500" preserveAspectRatio="xMidYMid meet" version="1.0"><defs><g/></defs><rect x="-37.5" width="450" fill="#ffffff" y="-37.499999" height="449.999989" fill-opacity="1"/><rect x="-37.5" width="450" fill="#ffffff" y="-37.499999" height="449.999989" fill-opacity="1"/><rect x="-37.5" width="450" fill="#215340" y="-37.499999" height="449.999989" fill-opacity="1"/><g fill="#ffffff" fill-opacity="1"><g transform="translate(70.608018, 181.038372)"><g><path d="M 9.5625 -13.015625 L 9.5625 -11.015625 L 6.203125 -11.015625 L 6.203125 0 L 4.125 0 L 4.125 -11.015625 L 0.859375 -11.015625 L 0.859375 -13.015625 Z M 9.5625 -13.015625 "/></g></g></g><g fill="#ffffff" fill-opacity="1"><g transform="translate(83.763046, 181.038372)"><g><path d="M 12.375 0 L 10.28125 0 L 10.28125 -5.546875 L 3.875 -5.546875 L 3.875 0 L 1.78125 0 L 1.78125 -13.015625 L 3.875 -13.015625 L 3.875 -7.53125 L 10.28125 -7.53125 L 10.28125 -13.015625 L 12.375 -13.015625 Z M 12.375 0 "/></g></g></g><g fill="#ffffff" fill-opacity="1"><g transform="translate(100.653117, 181.038372)"><g><path d="M 10.421875 -13.015625 L 10.421875 -11.015625 L 3.875 -11.015625 L 3.875 -7.546875 L 9.703125 -7.546875 L 9.703125 -5.546875 L 3.875 -5.546875 L 3.875 -2 L 10.671875 -2 L 10.671875 0 L 1.78125 0 L 1.78125 -13.015625 Z M 10.421875 -13.015625 "/></g></g></g><g fill="#ffffff" fill-opacity="1"><g transform="translate(115.148477, 181.038372)"><g/></g></g><g fill="#ffffff" fill-opacity="1"><g transform="translate(123.603429, 181.038372)"><g><path d="M 9.5625 -13.015625 L 9.5625 -11.015625 L 6.203125 -11.015625 L 6.203125 0 L 4.125 0 L 4.125 -11.015625 L 0.859375 -11.015625 L 0.859375 -13.015625 Z M 9.5625 -13.015625 "/></g></g></g><g fill="#ffffff" fill-opacity="1"><g transform="translate(136.758457, 181.038372)"><g><path d="M 8.46875 -3.0625 L 3.734375 -3.0625 L 2.484375 0 L 0.421875 0 L 6.1875 -13.546875 L 6.3125 -13.546875 L 12.0625 0 L 9.671875 0 Z M 7.78125 -4.84375 L 6.15625 -8.953125 L 4.46875 -4.84375 Z M 7.78125 -4.84375 "/></g></g></g><g fill="#ffffff" fill-opacity="1"><g transform="translate(151.986525, 181.038372)"><g><path d="M 8.609375 -10.375 C 7.492188 -10.957031 6.5 -11.25 5.625 -11.25 C 4.988281 -11.25 4.484375 -11.101562 4.109375 -10.8125 C 3.734375 -10.53125 3.546875 -10.140625 3.546875 -9.640625 C 3.546875 -9.148438 3.78125 -8.738281 4.25 -8.40625 C 4.71875 -8.082031 5.375 -7.757812 6.21875 -7.4375 C 6.863281 -7.207031 7.414062 -6.945312 7.875 -6.65625 C 8.332031 -6.363281 8.707031 -5.96875 9 -5.46875 C 9.300781 -4.96875 9.453125 -4.335938 9.453125 -3.578125 C 9.453125 -2.878906 9.28125 -2.25 8.9375 -1.6875 C 8.59375 -1.132812 8.09375 -0.691406 7.4375 -0.359375 C 6.78125 -0.0234375 6.003906 0.140625 5.109375 0.140625 C 4.328125 0.140625 3.550781 0.0195312 2.78125 -0.21875 C 2.019531 -0.46875 1.34375 -0.804688 0.75 -1.234375 L 1.6875 -2.859375 C 2.125 -2.523438 2.640625 -2.25 3.234375 -2.03125 C 3.835938 -1.8125 4.398438 -1.703125 4.921875 -1.703125 C 5.546875 -1.703125 6.097656 -1.851562 6.578125 -2.15625 C 7.054688 -2.457031 7.296875 -2.925781 7.296875 -3.5625 C 7.296875 -4.0625 7.09375 -4.476562 6.6875 -4.8125 C 6.289062 -5.144531 5.734375 -5.445312 5.015625 -5.71875 C 4.285156 -5.988281 3.675781 -6.257812 3.1875 -6.53125 C 2.695312 -6.800781 2.273438 -7.175781 1.921875 -7.65625 C 1.566406 -8.144531 1.390625 -8.75 1.390625 -9.46875 C 1.390625 -10.53125 1.75 -11.382812 2.46875 -12.03125 C 3.195312 -12.6875 4.148438 -13.035156 5.328125 -13.078125 C 6.179688 -13.078125 6.929688 -12.976562 7.578125 -12.78125 C 8.234375 -12.59375 8.84375 -12.316406 9.40625 -11.953125 Z M 8.609375 -10.375 "/></g></g></g><g fill="#ffffff" fill-opacity="1"><g transform="translate(165.123689, 181.038372)"><g><path d="M 9.5625 -13.015625 L 9.5625 -11.015625 L 6.203125 -11.015625 L 6.203125 0 L 4.125 0 L 4.125 -11.015625 L 0.859375 -11.015625 L 0.859375 -13.015625 Z M 9.5625 -13.015625 "/></g></g></g><g fill="#ffffff" fill-opacity="1"><g transform="translate(178.278718, 181.038372)"><g><path d="M 10.421875 -13.015625 L 10.421875 -11.015625 L 3.875 -11.015625 L 3.875 -7.546875 L 9.703125 -7.546875 L 9.703125 -5.546875 L 3.875 -5.546875 L 3.875 -2 L 10.671875 -2 L 10.671875 0 L 1.78125 0 L 1.78125 -13.015625 Z M 10.421875 -13.015625 "/></g></g></g><g fill="#ffffff" fill-opacity="1"><g transform="translate(192.774078, 181.038372)"><g/></g></g><g fill="#ffffff" fill-opacity="1"><g transform="translate(201.229029, 181.038372)"><g><path d="M 0.984375 -6.484375 C 0.984375 -7.679688 1.28125 -8.785156 1.875 -9.796875 C 2.46875 -10.816406 3.273438 -11.628906 4.296875 -12.234375 C 5.316406 -12.847656 6.425781 -13.15625 7.625 -13.15625 C 8.820312 -13.15625 9.929688 -12.847656 10.953125 -12.234375 C 11.972656 -11.628906 12.785156 -10.816406 13.390625 -9.796875 C 13.992188 -8.773438 14.296875 -7.671875 14.296875 -6.484375 C 14.296875 -5.285156 13.992188 -4.175781 13.390625 -3.15625 C 12.796875 -2.144531 11.984375 -1.34375 10.953125 -0.75 C 9.929688 -0.15625 8.820312 0.140625 7.625 0.140625 C 6.425781 0.140625 5.316406 -0.148438 4.296875 -0.734375 C 3.273438 -1.328125 2.46875 -2.128906 1.875 -3.140625 C 1.28125 -4.160156 0.984375 -5.273438 0.984375 -6.484375 Z M 3.125 -6.484375 C 3.125 -5.640625 3.328125 -4.863281 3.734375 -4.15625 C 4.140625 -3.457031 4.691406 -2.898438 5.390625 -2.484375 C 6.085938 -2.066406 6.851562 -1.859375 7.6875 -1.859375 C 8.507812 -1.859375 9.257812 -2.0625 9.9375 -2.46875 C 10.613281 -2.882812 11.148438 -3.445312 11.546875 -4.15625 C 11.953125 -4.863281 12.15625 -5.640625 12.15625 -6.484375 C 12.15625 -7.328125 11.953125 -8.109375 11.546875 -8.828125 C 11.140625 -9.546875 10.585938 -10.113281 9.890625 -10.53125 C 9.203125 -10.945312 8.445312 -11.15625 7.625 -11.15625 C 6.789062 -11.15625 6.03125 -10.945312 5.34375 -10.53125 C 4.664062 -10.113281 4.125 -9.546875 3.71875 -8.828125 C 3.320312 -8.109375 3.125 -7.328125 3.125 -6.484375 Z M 3.125 -6.484375 "/></g></g></g><g fill="#ffffff" fill-opacity="1"><g transform="translate(219.244982, 181.038372)"><g><path d="M 9.6875 -13.015625 L 9.6875 -11.015625 L 3.875 -11.015625 L 3.875 -7.34375 L 8.9375 -7.34375 L 8.9375 -5.359375 L 3.875 -5.359375 L 3.875 0 L 1.78125 0 L 1.78125 -13.015625 Z M 9.6875 -13.015625 "/></g></g></g><g fill="#ffffff" fill-opacity="1"><g transform="translate(232.578721, 181.038372)"><g/></g></g><g fill="#ffffff" fill-opacity="1"><g transform="translate(241.033672, 181.038372)"><g><path d="M 3.875 -13.015625 L 3.875 0 L 1.78125 0 L 1.78125 -13.015625 Z M 3.875 -13.015625 "/></g></g></g><g fill="#ffffff" fill-opacity="1"><g transform="translate(249.435008, 181.038372)"><g><path d="M 9.5625 -13.015625 L 9.5625 -11.015625 L 6.203125 -11.015625 L 6.203125 0 L 4.125 0 L 4.125 -11.015625 L 0.859375 -11.015625 L 0.859375 -13.015625 Z M 9.5625 -13.015625 "/></g></g></g><g fill="#ffffff" fill-opacity="1"><g transform="translate(262.590037, 181.038372)"><g><path d="M 8.46875 -3.0625 L 3.734375 -3.0625 L 2.484375 0 L 0.421875 0 L 6.1875 -13.546875 L 6.3125 -13.546875 L 12.0625 0 L 9.671875 0 Z M 7.78125 -4.84375 L 6.15625 -8.953125 L 4.46875 -4.84375 Z M 7.78125 -4.84375 "/></g></g></g><g fill="#ffffff" fill-opacity="1"><g transform="translate(277.818117, 181.038372)"><g><path d="M 3.875 -13.015625 L 3.875 -2 L 10.296875 -2 L 10.296875 0 L 1.78125 0 L 1.78125 -13.015625 Z M 3.875 -13.015625 "/></g></g></g><g fill="#ffffff" fill-opacity="1"><g transform="translate(291.813096, 181.038372)"><g><path d="M 12.171875 -13.015625 L 7.296875 -4.21875 L 7.296875 0 L 5.21875 0 L 5.21875 -4.21875 L 0.40625 -13.015625 L 2.96875 -13.015625 L 6.328125 -6.59375 L 9.609375 -13.015625 Z M 12.171875 -13.015625 "/></g></g></g><g fill="#ffffff" fill-opacity="1"><g transform="translate(136.522291, 203.899424)"><g><path d="M 1.175781 -6.183594 C 1.175781 -4.960938 1.363281 -3.855469 2.019531 -3.078125 C 2.820312 -2.09375 3.644531 -1.785156 4.230469 -1.785156 C 5.101562 -1.785156 5.476562 -2.421875 4.699219 -2.632812 C 4.464844 -2.703125 4.277344 -2.726562 4.042969 -2.820312 C 3.550781 -2.984375 3.171875 -3.289062 2.867188 -3.691406 C 1.503906 -5.359375 2.257812 -8.414062 3.007812 -10.082031 C 3.644531 -11.566406 4.535156 -12.902344 5.59375 -14.101562 C 6.230469 -14.902344 8.367188 -16.921875 9.449219 -16.921875 C 10.058594 -16.921875 10.320312 -16.664062 10.625 -16.054688 C 11.445312 -14.316406 10.414062 -9.941406 9.988281 -8.25 C 9.542969 -6.488281 9.167969 -4.722656 8.742188 -2.984375 C 8.367188 -1.175781 7.992188 0.683594 7.78125 2.515625 L 7.238281 6.816406 C 7.191406 7.285156 7.050781 8.039062 7.402344 8.179688 C 7.449219 8.203125 7.5 8.203125 7.546875 8.203125 C 7.898438 8.203125 7.875 7.5 7.921875 7.167969 C 7.96875 6.699219 8.039062 6.183594 8.109375 5.710938 C 8.835938 0.46875 9.660156 -2.726562 10.8125 -7.804688 C 11.304688 -9.941406 12.410156 -14.503906 11.234375 -16.617188 C 10.789062 -17.394531 10.199219 -17.675781 9.589844 -17.675781 C 8.414062 -17.675781 7.121094 -16.6875 6.371094 -15.9375 C 6.160156 -15.703125 5.96875 -15.582031 5.734375 -15.371094 C 3.503906 -13.140625 1.175781 -9.378906 1.175781 -6.183594 Z M 1.175781 -6.183594 "/></g></g></g><g fill="#ffffff" fill-opacity="1"><g transform="translate(147.635968, 203.899424)"><g><path d="M -6.605469 -10.484375 C -6.605469 -10.152344 -6.371094 -10.082031 -6.109375 -10.082031 C -5.96875 -10.082031 -5.828125 -10.105469 -5.710938 -10.128906 C -5.5 -10.578125 -5.734375 -10.484375 -5.148438 -10.71875 C -4.867188 -10.835938 -4.652344 -11 -4.371094 -11.117188 C -2.914062 -11.683594 -1.574219 -12.082031 -0.0234375 -12.457031 C 0.210938 -12.527344 0.753906 -12.621094 0.894531 -12.667969 L 0.683594 -10.484375 C 0.65625 -10.175781 0.632812 -9.660156 0.585938 -9.355469 C 0.46875 -8.671875 0.445312 -5.5 0.445312 -4.605469 L 0.375 -3.503906 C 0.375 -1.785156 0.304688 1.011719 0.445312 2.703125 C 0.445312 3.265625 0.46875 4.113281 1.082031 4.113281 C 1.691406 4.113281 1.339844 2.492188 1.339844 1.949219 C 1.292969 0.917969 1.316406 -3.785156 1.386719 -4.488281 C 1.433594 -4.984375 1.386719 -6.039062 1.386719 -6.722656 C 1.386719 -7.050781 1.457031 -7.050781 1.457031 -7.355469 C 1.457031 -7.59375 1.433594 -7.875 1.457031 -8.085938 L 1.925781 -12.902344 C 2.492188 -13.023438 6.0625 -13.703125 7.355469 -13.703125 C 7.523438 -13.703125 7.640625 -13.703125 7.734375 -13.679688 C 8.015625 -13.609375 7.945312 -13.703125 8.015625 -13.46875 C 8.910156 -13.46875 8.625 -14.410156 7.523438 -14.410156 C 6.085938 -14.410156 4.699219 -14.171875 3.335938 -13.914062 C 2.984375 -13.867188 2.492188 -13.726562 2.117188 -13.726562 C 2.117188 -14.480469 2.585938 -13.867188 2.585938 -14.480469 C 2.585938 -14.621094 2.5625 -14.714844 2.5625 -14.785156 C 2.539062 -15.019531 2.585938 -14.832031 2.585938 -15.113281 C 2.585938 -15.488281 2.398438 -15.796875 2.140625 -15.796875 C 1.832031 -15.796875 1.457031 -15.371094 1.222656 -14.101562 C 1.058594 -13.304688 1.128906 -13.515625 0.140625 -13.257812 C -1.199219 -12.878906 -6.605469 -11.539062 -6.605469 -10.484375 Z M -6.605469 -10.484375 "/></g></g></g><g fill="#ffffff" fill-opacity="1"><g transform="translate(150.361527, 203.899424)"><g><path d="M 0 -2.375 C 0 -1.527344 0.0703125 -1.128906 0.941406 -1.128906 C 1.621094 -1.128906 2.351562 -3.335938 2.796875 -3.644531 C 2.796875 -2.632812 3.550781 -1.410156 4.722656 -1.410156 C 5.125 -1.410156 5.570312 -1.550781 6.039062 -1.878906 L 6.746094 -2.445312 C 7.945312 -3.597656 7.804688 -4.183594 7.449219 -4.183594 C 7.308594 -4.183594 7.144531 -4.113281 7.027344 -3.949219 C 6.699219 -3.597656 6.628906 -3.382812 6.183594 -2.984375 C 5.664062 -2.46875 5.171875 -2.1875 4.722656 -2.1875 C 4.230469 -2.1875 3.808594 -2.5625 3.621094 -3.410156 C 3.410156 -4.300781 3.808594 -5.359375 2.984375 -5.359375 C 2.679688 -5.359375 1.714844 -3.359375 1.246094 -2.632812 L 1.058594 -2.351562 C 0.941406 -2.210938 1.011719 -2.304688 0.941406 -2.234375 C 0.941406 -3.007812 1.269531 -3.902344 1.574219 -4.394531 C 2.257812 -5.570312 2.726562 -5.898438 3.078125 -5.898438 C 3.527344 -5.898438 3.808594 -5.359375 4.136719 -5.359375 C 4.746094 -5.359375 4.136719 -6.699219 3.03125 -6.699219 C 1.386719 -6.699219 0 -3.714844 0 -2.375 Z M 0 -2.375 "/></g></g></g><g fill="#ffffff" fill-opacity="1"><g transform="translate(157.175408, 203.899424)"><g><path d="M 0.046875 -1.808594 C 0.046875 -0.28125 0.09375 2.609375 1.363281 2.609375 C 1.949219 2.609375 2.398438 1.714844 2.65625 1.316406 C 3.171875 0.445312 3.808594 -1.199219 4.300781 -2.210938 C 4.417969 -2.445312 5.148438 -3.808594 5.148438 -3.949219 C 5.148438 -4.066406 5.054688 -4.207031 4.9375 -4.207031 C 4.820312 -4.207031 4.675781 -4.113281 4.535156 -3.832031 C 3.785156 -2.492188 3.101562 -0.847656 2.398438 0.515625 C 2.140625 1.058594 1.808594 1.691406 1.292969 1.972656 C 0.234375 -0.046875 1.550781 -7.355469 2.210938 -9.730469 C 2.28125 -9.964844 2.890625 -11.328125 2.117188 -11.328125 C 1.503906 -11.328125 1.292969 -10.152344 1.082031 -9.472656 C 0.492188 -7.308594 0.046875 -4.136719 0.046875 -1.808594 Z M 0.046875 -1.808594 "/></g></g></g><g fill="#ffffff" fill-opacity="1"><g transform="translate(161.31073, 203.899424)"><g><path d="M 1.949219 0.09375 C 3.054688 0.09375 3.949219 -0.941406 4.511719 -1.527344 C 4.890625 -1.902344 6.300781 -3.480469 6.300781 -3.925781 C 6.300781 -4.136719 6.230469 -4.207031 6.136719 -4.207031 C 5.6875 -4.207031 4.441406 -2.539062 4.347656 -2.421875 C 3.996094 -1.972656 2.773438 -0.730469 2.019531 -0.730469 C 1.386719 -0.730469 1.128906 -2.117188 1.128906 -2.820312 C 1.128906 -5.21875 2.070312 -6.277344 0.988281 -6.277344 C 0.515625 -6.277344 0.28125 -5.21875 0.210938 -4.722656 C -0.046875 -3.527344 0 -1.902344 0.5625 -0.847656 C 0.824219 -0.398438 1.316406 0.09375 1.949219 0.09375 Z M 1.199219 -9.238281 C 1.199219 -8.71875 1.503906 -8.484375 1.832031 -8.484375 C 2.304688 -8.484375 2.796875 -9.003906 2.351562 -9.871094 C 2.210938 -10.128906 2.046875 -10.226562 1.878906 -10.226562 C 1.527344 -10.226562 1.199219 -9.777344 1.199219 -9.238281 Z M 1.199219 -9.238281 "/></g></g></g><g fill="#ffffff" fill-opacity="1"><g transform="translate(166.667858, 203.899424)"><g><path d="M 0 -2.375 C 0 -1.527344 0.0703125 -1.128906 0.941406 -1.128906 C 1.621094 -1.128906 2.351562 -3.335938 2.796875 -3.644531 C 2.796875 -2.632812 3.550781 -1.410156 4.722656 -1.410156 C 5.125 -1.410156 5.570312 -1.550781 6.039062 -1.878906 L 6.746094 -2.445312 C 7.945312 -3.597656 7.804688 -4.183594 7.449219 -4.183594 C 7.308594 -4.183594 7.144531 -4.113281 7.027344 -3.949219 C 6.699219 -3.597656 6.628906 -3.382812 6.183594 -2.984375 C 5.664062 -2.46875 5.171875 -2.1875 4.722656 -2.1875 C 4.230469 -2.1875 3.808594 -2.5625 3.621094 -3.410156 C 3.410156 -4.300781 3.808594 -5.359375 2.984375 -5.359375 C 2.679688 -5.359375 1.714844 -3.359375 1.246094 -2.632812 L 1.058594 -2.351562 C 0.941406 -2.210938 1.011719 -2.304688 0.941406 -2.234375 C 0.941406 -3.007812 1.269531 -3.902344 1.574219 -4.394531 C 2.257812 -5.570312 2.726562 -5.898438 3.078125 -5.898438 C 3.527344 -5.898438 3.808594 -5.359375 4.136719 -5.359375 C 4.746094 -5.359375 4.136719 -6.699219 3.03125 -6.699219 C 1.386719 -6.699219 0 -3.714844 0 -2.375 Z M 0 -2.375 "/></g></g></g><g fill="#ffffff" fill-opacity="1"><g transform="translate(173.481738, 203.899424)"><g><path d="M 0.65625 -1.222656 C 1.574219 -1.222656 2.515625 -4.230469 3.289062 -4.746094 C 3.503906 -4.300781 3.171875 -3.359375 3.644531 -1.949219 C 3.855469 -1.316406 4.253906 -0.683594 4.984375 -0.683594 C 5.125 -0.683594 5.265625 -0.707031 5.429688 -0.753906 C 5.96875 -0.894531 6.722656 -1.832031 7.050781 -2.257812 C 7.191406 -2.445312 8.578125 -4.183594 7.664062 -4.183594 C 7.238281 -4.183594 5.992188 -1.386719 5.054688 -1.386719 C 4.183594 -1.386719 4.136719 -3.480469 4.136719 -4.066406 L 3.996094 -5.382812 C 3.878906 -5.640625 3.714844 -5.757812 3.550781 -5.757812 C 2.984375 -5.757812 2.28125 -4.558594 2.140625 -4.300781 L 1.011719 -2.585938 C 1.011719 -4.417969 2.539062 -6.628906 1.503906 -6.628906 C 0.609375 -6.628906 -0.847656 -1.222656 0.65625 -1.222656 Z M 0.65625 -1.222656 "/></g></g></g><g fill="#ffffff" fill-opacity="1"><g transform="translate(180.530589, 203.899424)"><g/></g></g><g fill="#ffffff" fill-opacity="1"><g transform="translate(186.616087, 203.899424)"><g><path d="M 6.347656 0.609375 C 6.183594 0.539062 5.898438 0.46875 5.664062 0.398438 C 5.382812 0.328125 5.078125 0.28125 4.890625 0.210938 C 4.984375 0.09375 6.183594 -0.65625 6.441406 -0.683594 C 6.300781 -0.398438 6.347656 0.1875 6.347656 0.609375 Z M 7.734375 -3.054688 C 7.734375 -3.832031 8.132812 -6.628906 8.25 -7.59375 C 8.414062 -9.027344 8.601562 -10.554688 8.886719 -11.917969 C 9.027344 -12.621094 9.167969 -13.28125 9.285156 -13.960938 C 9.425781 -14.691406 9.613281 -15.347656 9.730469 -16.078125 C 9.824219 -16.640625 9.707031 -16.617188 10.175781 -16.851562 C 11.492188 -17.511719 12.316406 -17.722656 13.820312 -17.722656 C 15.160156 -17.722656 16.265625 -16.617188 16.265625 -15.277344 C 16.265625 -13.046875 15.136719 -11.210938 13.984375 -9.519531 C 12.550781 -7.402344 9.871094 -4.535156 7.734375 -3.054688 Z M 1.199219 -4.867188 C 1.199219 -4.324219 1.082031 -2.65625 2.019531 -2.65625 C 2.960938 -2.65625 3.03125 -3.480469 2.515625 -3.480469 C 2.421875 -3.480469 2.304688 -3.410156 2.210938 -3.410156 C 2.070312 -3.410156 1.949219 -3.550781 1.949219 -4.300781 C 1.949219 -7.5 4.628906 -12.316406 7.191406 -14.667969 C 7.425781 -14.878906 7.59375 -14.972656 7.804688 -15.207031 C 7.992188 -15.371094 8.273438 -15.605469 8.484375 -15.679688 L 7.898438 -13.375 C 7.308594 -10.414062 6.863281 -7.425781 6.605469 -4.394531 L 6.511719 -2.984375 C 6.511719 -2.257812 6.652344 -2.210938 6.160156 -1.878906 C 5.804688 -1.667969 5.617188 -1.503906 5.289062 -1.316406 C 4.605469 -0.894531 4.089844 -0.5625 3.410156 -0.1875 C 2.84375 0.09375 2.117188 0.210938 2.234375 0.753906 C 2.28125 1.011719 2.445312 1.082031 2.65625 1.082031 C 2.960938 1.082031 3.335938 0.941406 3.574219 0.941406 C 4.488281 0.941406 5.664062 1.199219 6.277344 1.503906 C 6.277344 3.265625 6.109375 6.394531 6.253906 7.921875 C 6.324219 8.601562 6.085938 12.316406 7.261719 12.316406 C 7.96875 12.316406 7.59375 11.398438 7.523438 10.671875 C 7.332031 8.414062 7.425781 5.265625 7.425781 2.890625 C 7.425781 2.492188 7.5 2.539062 7.5 2.1875 C 7.992188 2.28125 9.871094 3.761719 10.34375 4.136719 C 11.257812 4.890625 18.121094 10.507812 18.640625 10.507812 C 18.851562 10.507812 18.851562 10.460938 19.039062 10.414062 C 19.039062 9.824219 18.992188 9.894531 18.640625 9.636719 C 15.277344 7.238281 12.269531 4.464844 9.121094 2.117188 C 8.554688 1.714844 8.039062 1.480469 7.5 1.082031 C 7.5 0.492188 7.59375 0.210938 7.59375 -0.375 C 7.59375 -2.117188 7.78125 -1.503906 9.683594 -3.171875 L 12.199219 -5.5 C 13.398438 -6.839844 14.054688 -7.472656 15.136719 -9.050781 C 16.195312 -10.671875 17.394531 -12.644531 17.394531 -14.925781 C 17.394531 -17.253906 15.867188 -18.6875 13.46875 -18.6875 C 11.824219 -18.6875 9.988281 -17.816406 8.695312 -16.992188 C 7.734375 -16.335938 7.664062 -16.148438 6.886719 -15.558594 C 4.558594 -13.773438 1.199219 -7.945312 1.199219 -4.867188 Z M 1.199219 -4.867188 "/></g></g></g><g fill="#ffffff" fill-opacity="1"><g transform="translate(201.230695, 203.899424)"><g><path d="M 1.082031 -4.253906 C 1.246094 -4.84375 2.019531 -5.757812 2.65625 -5.875 C 2.585938 -5.125 1.667969 -4.558594 1.082031 -4.253906 Z M 0.0234375 -3.691406 C 0.0234375 -3.03125 0 -2.445312 0.5625 -1.878906 C 0.964844 -1.480469 1.433594 -1.316406 1.925781 -1.316406 C 3.359375 -1.316406 4.984375 -2.75 5.851562 -3.621094 C 6.0625 -3.878906 6.0625 -3.902344 5.992188 -4.253906 C 5.289062 -4.253906 5.664062 -4.160156 4.699219 -3.410156 C 4.535156 -3.289062 4.464844 -3.195312 4.277344 -3.054688 C 3.808594 -2.703125 2.820312 -2.019531 1.996094 -2.019531 C 1.714844 -2.019531 1.433594 -2.117188 1.222656 -2.328125 C 0.824219 -2.726562 0.871094 -3.101562 0.871094 -3.597656 C 1.597656 -3.644531 2.445312 -4.324219 2.820312 -4.746094 C 3.550781 -5.664062 3.550781 -6.605469 2.515625 -6.605469 C 1.386719 -6.605469 0.0234375 -4.867188 0.0234375 -3.691406 Z M 0.0234375 -3.691406 "/></g></g></g><g fill="#ffffff" fill-opacity="1"><g transform="translate(206.329358, 203.899424)"><g><path d="M 0 -3.21875 C 0 -1.738281 0.65625 -0.351562 2.28125 -0.351562 C 3.949219 -0.351562 5.429688 -1.972656 6.394531 -3.195312 C 6.511719 -3.335938 6.675781 -3.550781 6.746094 -3.714844 C 6.886719 -4.019531 6.769531 -4.277344 6.558594 -4.277344 C 6.441406 -4.277344 6.253906 -4.160156 6.085938 -3.925781 C 5.21875 -2.75 3.925781 -1.128906 2.304688 -1.128906 C 1.738281 -1.128906 1.480469 -1.433594 1.316406 -1.855469 C 0.753906 -3.007812 1.574219 -5.078125 2.398438 -5.640625 C 2.445312 -5.242188 2.632812 -5.03125 2.820312 -5.03125 C 2.984375 -5.03125 3.125 -5.21875 3.125 -5.640625 C 3.125 -6.253906 2.84375 -6.582031 2.375 -6.582031 C 1.011719 -6.582031 0 -4.324219 0 -3.21875 Z M 0 -3.21875 "/></g></g></g><g fill="#ffffff" fill-opacity="1"><g transform="translate(212.015423, 203.899424)"><g><path d="M 1.949219 0.09375 C 3.054688 0.09375 3.949219 -0.941406 4.511719 -1.527344 C 4.890625 -1.902344 6.300781 -3.480469 6.300781 -3.925781 C 6.300781 -4.136719 6.230469 -4.207031 6.136719 -4.207031 C 5.6875 -4.207031 4.441406 -2.539062 4.347656 -2.421875 C 3.996094 -1.972656 2.773438 -0.730469 2.019531 -0.730469 C 1.386719 -0.730469 1.128906 -2.117188 1.128906 -2.820312 C 1.128906 -5.21875 2.070312 -6.277344 0.988281 -6.277344 C 0.515625 -6.277344 0.28125 -5.21875 0.210938 -4.722656 C -0.046875 -3.527344 0 -1.902344 0.5625 -0.847656 C 0.824219 -0.398438 1.316406 0.09375 1.949219 0.09375 Z M 1.199219 -9.238281 C 1.199219 -8.71875 1.503906 -8.484375 1.832031 -8.484375 C 2.304688 -8.484375 2.796875 -9.003906 2.351562 -9.871094 C 2.210938 -10.128906 2.046875 -10.226562 1.878906 -10.226562 C 1.527344 -10.226562 1.199219 -9.777344 1.199219 -9.238281 Z M 1.199219 -9.238281 "/></g></g></g><g fill="#ffffff" fill-opacity="1"><g transform="translate(217.372551, 203.899424)"><g><path d="M 1.621094 1.457031 C 1.832031 0.5625 1.808594 0.65625 2.398438 0.117188 L 3.574219 -0.894531 C 3.382812 -0.1875 2.398438 1.035156 1.621094 1.457031 Z M 2.210938 -0.609375 C 2.28125 -1.480469 3.335938 -3.503906 3.808594 -3.503906 C 3.949219 -3.503906 4.019531 -3.335938 4.019531 -2.960938 C 4.019531 -1.902344 4.113281 -2.210938 2.726562 -1.035156 C 2.609375 -0.941406 2.609375 -0.941406 2.46875 -0.847656 C 2.351562 -0.730469 2.351562 -0.707031 2.210938 -0.609375 Z M 0 -0.09375 C 0 1.902344 0.257812 3.996094 0.539062 5.96875 C 0.585938 6.394531 0.585938 6.605469 0.941406 6.605469 C 1.457031 6.605469 1.128906 5.335938 1.128906 4.464844 C 1.128906 4.042969 1.246094 2.445312 1.597656 2.234375 C 1.761719 2.117188 2.019531 2.019531 2.210938 1.925781 C 4.136719 0.824219 4.558594 -1.621094 4.773438 -1.855469 C 5.078125 -2.234375 7.355469 -3.574219 7.355469 -3.902344 C 7.355469 -4.113281 7.285156 -4.183594 7.144531 -4.183594 C 6.769531 -4.183594 5.921875 -3.480469 5.476562 -3.171875 C 5.289062 -3.054688 5.007812 -2.820312 4.820312 -2.773438 C 4.820312 -3.433594 4.488281 -4.230469 3.808594 -4.230469 C 2.1875 -4.230469 1.550781 0.1875 1.011719 0.585938 C 1.011719 -1.761719 1.199219 -3.832031 1.644531 -6.0625 C 1.808594 -6.839844 1.878906 -6.699219 1.738281 -7.238281 C 1.621094 -7.308594 1.503906 -7.332031 1.410156 -7.332031 C 0.398438 -7.332031 0 -1.035156 0 -0.09375 Z M 0 -0.09375 "/></g></g></g><g fill="#ffffff" fill-opacity="1"><g transform="translate(223.951473, 203.899424)"><g><path d="M 1.082031 -4.253906 C 1.246094 -4.84375 2.019531 -5.757812 2.65625 -5.875 C 2.585938 -5.125 1.667969 -4.558594 1.082031 -4.253906 Z M 0.0234375 -3.691406 C 0.0234375 -3.03125 0 -2.445312 0.5625 -1.878906 C 0.964844 -1.480469 1.433594 -1.316406 1.925781 -1.316406 C 3.359375 -1.316406 4.984375 -2.75 5.851562 -3.621094 C 6.0625 -3.878906 6.0625 -3.902344 5.992188 -4.253906 C 5.289062 -4.253906 5.664062 -4.160156 4.699219 -3.410156 C 4.535156 -3.289062 4.464844 -3.195312 4.277344 -3.054688 C 3.808594 -2.703125 2.820312 -2.019531 1.996094 -2.019531 C 1.714844 -2.019531 1.433594 -2.117188 1.222656 -2.328125 C 0.824219 -2.726562 0.871094 -3.101562 0.871094 -3.597656 C 1.597656 -3.644531 2.445312 -4.324219 2.820312 -4.746094 C 3.550781 -5.664062 3.550781 -6.605469 2.515625 -6.605469 C 1.386719 -6.605469 0.0234375 -4.867188 0.0234375 -3.691406 Z M 0.0234375 -3.691406 "/></g></g></g><g fill="#ffffff" fill-opacity="1"><g transform="translate(229.050136, 203.899424)"><g><path d="M 0.28125 3.878906 C 0.28125 2.9375 0.964844 1.878906 1.527344 1.199219 C 1.808594 0.871094 2.375 0.164062 2.75 -0.046875 C 2.75 0.609375 2.773438 1.128906 2.609375 1.667969 C 2.398438 2.445312 1.878906 3.574219 1.246094 4.042969 C 1.082031 4.183594 0.800781 4.371094 0.585938 4.371094 C 0.421875 4.371094 0.28125 4.230469 0.28125 3.878906 Z M 0.0703125 -3.808594 C 0.0703125 -2.5625 1.714844 -2.164062 2.445312 -0.824219 C 2.09375 -0.257812 -0.46875 1.761719 -0.46875 3.878906 C -0.46875 4.722656 0 5.171875 0.65625 5.171875 C 1.363281 5.171875 2.257812 4.628906 2.9375 3.480469 C 4.511719 0.800781 3.550781 -0.5625 3.644531 -0.894531 C 3.691406 -1.082031 5.359375 -2.328125 5.617188 -2.46875 L 7.214844 -3.574219 C 7.757812 -3.878906 7.804688 -4.277344 7.425781 -4.277344 C 7.214844 -4.277344 6.910156 -4.183594 6.511719 -3.902344 L 4.324219 -2.375 C 3.972656 -2.070312 3.644531 -1.808594 3.265625 -1.550781 C 2.046875 -3.382812 0.28125 -3.3125 1.527344 -4.722656 C 1.878906 -5.125 1.808594 -5.007812 2.375 -5.148438 C 2.515625 -5.734375 2.304688 -5.96875 1.972656 -5.96875 C 1.292969 -5.96875 0.0703125 -5.007812 0.0703125 -3.808594 Z M 0.0703125 -3.808594 "/></g></g></g><path stroke-linecap="round" transform="matrix(0.747826, 0.0024372, -0.00244427, 0.749996, 80.181035, 200.221744)" fill="none" stroke-linejoin="miter" d="M 0.501284 0.499591 L 69.717549 0.498624 " stroke="#ffffff" stroke-width="1" stroke-opacity="1" stroke-miterlimit="4"/><path stroke-linecap="round" transform="matrix(0.752166, -0.00493215, 0.00491784, 0.749984, 242.467064, 200.393336)" fill="none" stroke-linejoin="miter" d="M 0.497535 0.499667 L 69.298802 0.498994 " stroke="#ffffff" stroke-width="1" stroke-opacity="1" stroke-miterlimit="4"/></svg>